<svg version="1.2" xmlns="http://www.w3.org/2000/svg" viewBox="0 0 450 450" width="450" height="450">
	<title>30170</title>
	<defs>
		<linearGradient id="g1" x2="1" gradientUnits="userSpaceOnUse" gradientTransform="matrix(59.738,204.701,125.733,-36.692,76.453,93.648)">
			<stop offset="0" stop-color="#946442"/>
			<stop offset="1" stop-color="#7f522c"/>
		</linearGradient>
	</defs>
	<style>
		.s0 { fill: #936448 } 
		.s1 { fill: #af8c72 } 
		.s2 { fill: #946442 } 
		.s3 { fill: #653a1a } 
		.s4 { fill: url(#g1) } 
		.s5 { fill: #94645e } 
		.s6 { fill: #6b4643 } 
		.s7 { fill: #31251a } 
		.s8 { fill: #8d5b35 } 
		.s9 { fill: #825542 } 
		.s10 { fill: #353533 } 
		.s11 { fill: #826f68 } 
		.s12 { fill: #69524a } 
		.s13 { opacity: .3;mix-blend-mode: screen;fill: #704124 } 
		.s14 { fill: #643c29 } 
	</style>
	<g id="Layer 1">
		<g id="&lt;Group&gt;">
			<g id="&lt;Group&gt;">
				<path id="&lt;Path&gt;" fill-rule="evenodd" class="s0" d="m95 165c-3.8-2.6-10.1-2-14.5-4.1-4.9-2.5-7.7-6-11.4-9.9-3.1-3.2-6.2-7.6-10.4-9.4-6.5-2.7-6.5 2.3-8.4 6.5-1.9 4.5-4.6 7.8-3.4 13 1.5 6.2 8.6 5.4 12.1 10.4 1.8 2.6 5.4 6.5 6.8 9.4 1.7 3.5-1.6 8.1 2 5.9 5.7-3.5 9.8-8.7 14.4-13.4 2.4-2.3 4.5-5.9 7.4-7.3 1.3-0.5 4.8-0.8 5.4-1.1z"/>
			</g>
			<g id="&lt;Group&gt;" style="opacity: .3;mix-blend-mode: multiply">
				<path id="&lt;Path&gt;" fill-rule="evenodd" class="s1" d="m59.5 153.6c4.3 2.7 9.5 6.4 14.3 8.1 2.6 0.8 4.8 0.4 6.7-0.9q0 0 0 0.1c4.4 2.1 10.7 1.5 14.5 4.1-0.6 0.3-4.1 0.6-5.4 1.1-2.9 1.4-5 5-7.4 7.3-4.6 4.7-8.7 9.9-14.4 13.4-3.6 2.2-0.3-2.4-2-5.9-1.4-2.9-5-6.8-6.8-9.4-3.5-5-10.6-4.2-12.1-10.4-0.9-4.2 0.6-7.1 2.2-10.3 3.6 0.7 7.2 0.8 10.4 2.8z"/>
			</g>
			<g id="&lt;Group&gt;">
				<path id="&lt;Path&gt;" fill-rule="evenodd" class="s2" d="m404.9 148.5c21-2.3 29.2 32 27.9 46.9-0.9 10-5.3 19.9-8.3 29.2-2.4 7.7-4.8 15.8-9.3 23-1.7 2.6-6 10.1-9.7 9.8-6.4-0.6 0-7 1.8-9.5 5.4-7.6 8.6-17.9 10.4-27.1 3.6-18.1 13-46.7-7.1-57.9-3.8-2.1-14.8-13.4-5.7-14.4z"/>
			</g>
			<g id="&lt;Group&gt;" style="opacity: .7;mix-blend-mode: multiply">
				<path id="&lt;Path&gt;" fill-rule="evenodd" class="s2" d="m417.7 220.8c3.6-18.1 13-46.7-7.1-57.9-3.8-2.1-14.8-13.4-5.7-14.4 5.3-0.6 9.9 1.2 13.6 4.5 0.6 5.1 1.2 9.7 3.8 14.2 4.5 8 5.8 20.5 4.6 30.9-0.8 6.5-1 10.8 2.6 11.7-1.6 5.1-3.4 10-5 14.8-2.4 7.7-4.8 15.8-9.3 23-1.7 2.6-6 10.1-9.7 9.8-6.4-0.6 0-7 1.8-9.5 5.4-7.6 8.6-17.9 10.4-27.1z"/>
			</g>
			<g id="&lt;Group&gt;">
				<path id="&lt;Path&gt;" fill-rule="evenodd" class="s3" d="m181.7 213.1c0.5 0.4 23.6 35.9 26.8 49.5 3.1 13.6-12.1 26.9-8.5 62.3l-17.1 2.4c0 0-1.2-57.5-15.3-64.3-14-6.8 2.8-59 14.1-49.9z"/>
			</g>
			<g id="&lt;Group&gt;">
				<path id="&lt;Path&gt;" fill-rule="evenodd" class="s3" d="m403.1 201.3c0 0-24.5 41.8-12.2 69.9 12.2 28.1-5.8 11.9-8.5 52.8l-18-0.3c0 0 9.2-29.7 6.8-39.5-1.4-5.6-22.7-30-20.9-59.9 1.9-30 60.2-46.3 52.8-23z"/>
			</g>
			<path id="&lt;Path&gt;" fill-rule="evenodd" class="s4" d="m73.2 175.4c0 0 24.1-11.8 40-26.7 15.9-15 30.4-27.3 44-30.9 13.6-3.6 66.2-6.2 87.6-14.9 21.3-8.7 114.3-10.5 140.6 13.6 26.4 24 30.4 34.9 30.9 48.1 0.4 13.1 2.7 52.6-59 73.9 0 0-16.9 21.3-9.7 45.4 7.3 24.2-2.1 7.5-11.7 50.6l-17.3-0.8c0 0 8.8-39.2 5.4-45.3-3.3-6-8.1-43.8-11.5-40.8-3.3 3-36 17.2-64.7 15.7-28.7-1.5-46.6-17.2-47.5-12.1-0.9 5.2-41.5 69.1-46.9 85.7l-17.2-1c0 0 23.6-56.8 21.1-67.1-2.4-10.3-12.1-16.1-13-15.5-0.9 0.6-9.9 7.6-21.7 13-11.8 5.5-25.2 19.1-42.4 17-17.2-2.1-18.3 11.9-35.5 8.8-17.3-3.2-18.9-13.2-18.9-13.2 0 0 3.2-23.1 23.2-38.6 10.6-8.2-2.1-22.9 1.3-33.1 3.4-10.2 9.9-24.6 22.9-31.8z"/>
			<g id="&lt;Group&gt;" style="opacity: .3;mix-blend-mode: multiply">
				<path id="&lt;Path&gt;" fill-rule="evenodd" class="s1" d="m30 265.2c3.3-7.7 9.1-17.2 19-24.9q1-0.8 1.7-1.6c0.2-0.2 0.3-0.4 0.4-0.6 0.3-0.4 0.6-0.8 0.9-1.2 0.1-0.2 0.2-0.5 0.3-0.7 0.1-0.4 0.3-0.8 0.5-1.2 0-0.2 0.1-0.5 0.1-0.7q0.1-0.3 0.1-0.5c1.2 0 2.5 0.2 3.9 0.8 2.3 1.1 3.9 3.1 6.3 4.1 2.5 1 7.3 1.2 11.1 2.4q-1.6 0.2-3 0.6c-0.7 0-1.3 0-1.8 0-1.3 0.2-8.3 0.6-8.7 2.1-0.2 0.9 1.8 2.2 1.6 3.6-3.1 1-10.6-1.1-12.4 2.7 3 0.1 4.5 2 5.4 4.5-2.9-0.4-7.5-1.3-9.8 1.2 1.2 0.7 3 1.7 2.5 3.4 0 0.3-5.8 0.9-6.5 1.2-2.5 1-3.2 2.9-4.9 4.7-1.8 1.9-7.8 4.7-6.7 0.1z"/>
			</g>
			<g id="&lt;Group&gt;" style="opacity: .3;mix-blend-mode: multiply">
				<path id="&lt;Path&gt;" fill-rule="evenodd" class="s1" d="m103.8 193.8c-3 5.2-7.1 8.9-12.5 10.9-3.1-7.1-9.1-11.4-15.2-16.6-3.1-2.6-5.3-6.1-7-9.9 1.3-1 2.7-1.9 4.1-2.8 0 0 1.6-0.7 4.2-2.1 4.2 1.2 8.8 1.7 13.7 2.8 8.2 1.8 18.2 8 12.7 17.7z"/>
			</g>
			<g id="&lt;Group&gt;" style="opacity: .3;mix-blend-mode: multiply">
				<path id="&lt;Path&gt;" fill-rule="evenodd" class="s1" d="m60.4 268.6c4.9-3.5 7.9-8.7 14.7-9.9 3.5-0.7 8.4-1.1 11.4-3.2 4.3-2.8 7.7-5.8 9.3-10.8 3.4-10.7 7.2-16.1 17.7-22 4.9-2.7 8.1-8.8 10.6-14.5 6.3 10.4 14.5 19.8 25.6 25 3.7 1.7 9.2-0.1 8.8-4.9-0.4-4.8-2.2-9-3.5-13.6-1.8-6.6 3.9-10.7 3.7-16.7-0.2-6.3-1.5-12.3-2.4-18.5-0.9-5.8 13.9 7.1 14.3 7.4 10.9 6.3 21.8 10.6 31.4 19 7.3 6.3 14.7 12.4 22.2 18.4 10.1 8.1 19 15.2 31.5 7.7 11.7-7 23-11.7 27.2-25.4 3.5-11.1 15-14.5 22.6-21.5 5.5-5 8.7-12.2 13.4-18.1 6.8 13 12.6 20.9 27.1 28.3 10.7 5.5 21.6 1.2 30.3-5.7 11.3-8.7 29.3-25.9 35.1-43.5 3.6 6.7 4.7 12.3 4.9 18.5 0.4 13.1 2.7 52.6-59 73.9 0 0-16.9 21.3-9.7 45.4 7.3 24.2-2.1 7.5-11.7 50.6l-17.3-0.8c0 0 8.8-39.2 5.4-45.3-3.3-6-8.1-43.8-11.5-40.8-3.3 3-36 17.2-64.7 15.7-28.7-1.5-46.6-17.2-47.5-12.1-0.9 5.2-41.5 69.1-46.9 85.7l-17.2-1c0 0 23.6-56.8 21.1-67.1-2.4-10.3-12.1-16.1-13-15.5-0.9 0.6-9.9 7.6-21.7 13-11.8 5.5-25.2 19.1-42.4 17-17.2-2.1-18.3 11.9-35.5 8.8-17.3-3.2-18.9-13.2-18.9-13.2 0 0 0.4-2.9 1.8-7.2 9.6 5 21.5 5 32.8-3.1z"/>
			</g>
			<g id="&lt;Group&gt;" style="opacity: .7;mix-blend-mode: multiply">
				<path id="&lt;Path&gt;" fill-rule="evenodd" class="s2" d="m59.3 200.7c-0.6 9.4 2.8 18.5 2.3 28-0.9 16-11.8 15.3-19 25.2-5.8 8-9.3 15.8-15.8 20.6 2-7.5 7.6-22.9 22.2-34.2 10.6-8.2-2.1-22.9 1.3-33.1 3.2-9.4 9-22.2 20-29.8-4 7.8-10.4 14.9-11 23.3z"/>
			</g>
			<g id="&lt;Group&gt;" style="opacity: .7;mix-blend-mode: multiply">
				<path id="&lt;Path&gt;" fill-rule="evenodd" class="s2" d="m161 302.6c6.1-13 15.2-25 20.8-37.9 7.5-17.2-3.9-32.5-10.5-49 4.6 3.9 9.9 7.2 14.6 10.4 14.9 10 28.5 24.8 47.2 27.6 13.8 2 31.8 2 42.7-8.4 5.1-4.9 10.3-10.4 14-16.4 9.2-15.2 18.8 9.6 22.2 19.1-5.1 3.6-36.4 16.8-64.2 15.3-28.7-1.5-46.6-17.2-47.5-12.1-0.9 5.2-41.5 69.1-46.9 85.7l-8.6-0.5c5.6-11.2 10.9-22.4 16.2-33.8z"/>
			</g>
			<g id="&lt;Group&gt;" style="opacity: .7;mix-blend-mode: multiply">
				<path id="&lt;Path&gt;" fill-rule="evenodd" class="s2" d="m37.7 286.9c7.6 0 15.9-1 22.5-4.9 3.8-2.2 6-3.9 9.2-6.8 1.8-1.7 2.8-4.4 4.1-6.8 6 4.2 12 7.9 20.8 5.8 13.8-3.3 21.6-13.8 24.2-25.4 0.5-2.6 2.9-12.1 4.2-14.4 0.1 1.1 2.4 7.6 2.4 8.8-0.1 3.5-0.1 6.9 1.2 10.2 1.5 3.7 7.1 3.3 7.1-1 0.2-6.4 0.3-12.2 2.4-18.3 0.5-1.4 0.9-2.8 1.1-4.1q0.4 1.7 0.9 3.4 0.8 4.3 1.5 8.6c0.9 4.5 2.1 8.6 3.8 12.2-2.9 2.1-10.8 7.6-20.5 12.1-11.8 5.5-25.2 19.1-42.4 17-17.2-2.1-18.3 11.9-35.5 8.8-7.9-1.5-12.5-4.4-15.2-7.1 2.3 1.2 5 1.8 8.2 1.9z"/>
			</g>
			<g id="&lt;Group&gt;" style="opacity: .7;mix-blend-mode: multiply">
				<path id="&lt;Path&gt;" fill-rule="evenodd" class="s2" d="m340 307.5c3.5-4.7 3.3-11.2 2.8-16.7-2.2-23.5-2.2-50.8 21.1-64.5 24.3-14.3 45.2-36.4 52.3-63.9q0.1 1.1 0.1 2.2c0.4 13.1 2.7 52.6-59 73.9 0 0-16.9 21.3-9.7 45.4 7.3 24.2-2.1 7.5-11.7 50.6l-5.4-0.3c2.2-9.4 3.1-17.9 9.5-26.7z"/>
			</g>
			<g id="&lt;Group&gt;">
				<g id="&lt;Group&gt;">
					<path id="&lt;Path&gt;" fill-rule="evenodd" class="s5" d="m335.9 334.5l-17.3-0.8c0 0-12 14.2-11 16 1 1.7 19.3 0.7 19.8 0 1.3-1.8 3.6-11.2 3.9-10.6 0.3 0.6-3.7 10.7-1 10.7 1.7 0 6.7-7.4 5.6-15.3z"/>
				</g>
				<path id="&lt;Path&gt;" fill-rule="evenodd" class="s6" d="m320.4 334.5c-1 1.3-8.7 12-11.2 15.8 1 0.2 2.6 0.3 4.3 0.3 0 0 5.4-10.8 6.9-16.1z"/>
			</g>
			<g id="&lt;Group&gt;">
				<g id="&lt;Group&gt;">
					<path id="&lt;Path&gt;" fill-rule="evenodd" class="s3" d="m382.3 323.7l-17.2-0.8c0 0-12.1 14.2-11 16 1 1.7 19.3 0.7 19.8 0 1.3-1.8 3.6-11.2 3.9-10.6 0.3 0.6-3.7 10.7-1 10.7 1.7 0 6.7-7.4 5.5-15.3z"/>
					<path id="&lt;Path&gt;" fill-rule="evenodd" class="s7" d="m367.4 323.7c-0.9 1.3-8.7 12-11.2 15.8 1.1 0.2 2.6 0.3 4.3 0.3 0 0 5.4-10.7 6.9-16.1z"/>
				</g>
			</g>
			<g id="&lt;Group&gt;">
				<g id="&lt;Group&gt;">
					<path id="&lt;Path&gt;" fill-rule="evenodd" class="s5" d="m153.3 336.4l-16.9-0.7c0 0-11.7 13.9-10.7 15.6 1 1.7 18.9 0.7 19.3 0 1.3-1.7 3.6-10.9 3.9-10.3 0.3 0.6-3.6 10.5-1 10.5 1.7 0 6.6-7.3 5.4-15.1z"/>
				</g>
				<path id="&lt;Path&gt;" fill-rule="evenodd" class="s6" d="m138.2 336.4c-1 1.4-8.5 11.8-11 15.5 1 0.2 2.5 0.3 4.2 0.3 0 0 5.3-10.5 6.8-15.8z"/>
			</g>
			<g id="&lt;Group&gt;">
				<g id="&lt;Group&gt;">
					<path id="&lt;Path&gt;" fill-rule="evenodd" class="s3" d="m200 324.9l-17.1 2c0 0-9.7 15.9-8.4 17.5 1.3 1.5 19.2-2.4 19.6-3.2 1-2 1.8-11.5 2.2-11 0.4 0.5-2 11.1 0.7 10.7 1.7-0.3 5.4-8.4 3-16z"/>
					<path id="&lt;Path&gt;" fill-rule="evenodd" class="s7" d="m185.3 327.3c-0.7 1.4-6.7 13.2-8.6 17.4 1.1 0 2.6-0.2 4.3-0.4 0 0 3.7-11.5 4.3-17z"/>
				</g>
			</g>
			<g id="&lt;Group&gt;">
				<path id="&lt;Path&gt;" fill-rule="evenodd" class="s0" d="m87.2 210.7c4.9-0.1 5.6-6.2 6.3-10 1.1-5.4 0.3-9.7-1.7-14.8-4.2-10.2-10.9-16.8-20.4-22.3-4.4-2.6-24.2-16.3-26.9-8-2.7 8.3 8.7 17.5 14.2 22.5 1.5 1.3 3.1 2.8 4.2 4.5 0.8 1.2 1.3 4.1 2.2 5 2.3 2.3 8.1 2.1 11.1 4.4 3.1 2.4 5.5 6.9 7 10.5 1.2 3.2 1.9 7.4 5.2 9.1 0.5-0.1-1.5-0.6-1.2-0.9z"/>
			</g>
			<g id="&lt;Group&gt;" style="opacity: .3;mix-blend-mode: multiply">
				<path id="&lt;Path&gt;" fill-rule="evenodd" class="s8" d="m81.4 181.7c2.8-0.5 4.4-2.4 5.4-4.8 1.9 2.6 3.6 5.6 5 9 2 5.1 2.8 9.4 1.7 14.8-0.7 3.8-1.4 9.9-6.3 10q-0.1 0 0 0.1c-2.3-2-2.9-5.5-4-8.3-1.5-3.6-3.9-8.1-7-10.5-3-2.3-8.8-2.1-11.1-4.4-0.9-0.9-1.4-3.8-2.2-5-1.1-1.7-2.7-3.2-4.2-4.5-1.3-1.2-3-2.7-4.7-4.3 9.1-0.7 17 9.7 27.4 7.9z"/>
			</g>
			<g id="&lt;Group&gt;">
				<path id="&lt;Path&gt;" fill-rule="evenodd" class="s9" d="m61.7 167.5c7 5.5 18.2 10 20.8 19.3 1.8 5.9 1.8 12.1 1.8 18.8q0 0.1 0 0.3c-0.4-1.2-0.7-2.3-1.1-3.4-1.5-3.6-3.9-8.1-7-10.5-3-2.3-8.8-2.1-11.1-4.4-0.9-0.9-1.3-3.8-2.2-5-1.1-1.7-2.7-3.2-4.2-4.5-4.7-4.3-13.7-11.6-14.5-18.8 6.1 1.6 11.7 3.6 17.5 8.2z"/>
			</g>
			<path id="&lt;Path&gt;" fill-rule="evenodd" class="s10" d="m79.6 214c0 6.3 0.2 14.3-8.5 12.6-3.2-8.7 3-10 8.5-12.6z"/>
			<g id="&lt;Group&gt;">
				<path id="&lt;Path&gt;" fill-rule="evenodd" class="s11" d="m41.8 291.8c-5.1-0.1-8.1 4.6-13.4 1.5-3.2-1.8-7.1-5.6-9.2-8.6-1.8-2.5-1.5-3.2 0.5-5 1.2-1.1 3.9-3.4 5.4-3.8 3.2-0.9 7.8 6.8 10.6 9.3 1.5 1.4 4.8 3.9 5.1 6-0.3 0.4 1.4 0.4 1 0.6z"/>
			</g>
			<g id="&lt;Group&gt;">
				<path id="&lt;Path&gt;" fill-rule="evenodd" class="s12" d="m20 279.4c1.9 2.3 4.3 4.2 6.7 6.2 3.5 3 7.4 3.8 11.5 1.9 1.2 1.1 2.4 2.5 2.6 3.7-0.3 0.4 1.4 0.4 1 0.6-5.1-0.1-8.1 4.6-13.4 1.5-3.2-1.8-7.1-5.6-9.2-8.6-1.8-2.5-1.5-3.2 0.5-5 0.1-0.1 0.2-0.2 0.3-0.3z"/>
			</g>
			<path id="&lt;Path&gt;" fill-rule="evenodd" class="s13" d="m122.4 149.5q0.1-0.1 0.2-0.2c4-2.8 8.7-5.2 13-7.7 2.5-1.4 4.9-2.6 7-4.7 1.7-1.8 3.1-3.6 5.2-5 4.2-2.8 8.7-4.8 13.5-6.5 6.1-2.1 12-2 18.3-2.8 6-0.7 12-2.9 18.1-3.8 6.2-0.9 12.6-1.7 18.8-2.3 7.1-0.6 13.9-1.6 20.9-3.3 9.5-2.4 19-6.2 28.6-7.8 13.3-2.3 27.6-0.9 41.2-1.2 26.6-0.6 56.5-1.7 75.8 19.9 3.3 3.8 8.1 8.8 6.5 14.6-2.1 7.5-12.6 6.6-18.8 6-18.7-1.9-35.3-7.7-53.7-11.4-16.2-3.2-28.4 10.1-42.6 16.3-17.4 7.5-33.4 4.9-50.1-2.5-11.8-5.2-24.9-6.8-37-1.3-12.7 5.6-23.7 12.9-37.3 17.1-7.4 2.2-15.3 3.9-23.1 4-4 0-7.5-0.6-11.3-1.8-1.7-0.6-7.6 0.5-8.7-0.8-1.3-1.6 1.9-4.5 3-5.3 4.3-3.1 8.2-6.5 12.5-9.5z"/>
			<g id="&lt;Group&gt;">
				<path id="&lt;Path&gt;" fill-rule="evenodd" class="s14" d="m67.5 171.5c6.2 4.1 13 8.3 15 15.3 1.1 3.7 1.5 7.5 1.7 11.5-0.9-0.7-1.4-3.5-2.1-4.4-1-1.4-2.3-2.8-3.6-3.8-2.2-1.8-5-2.1-7.6-2.9-3.6-1-4.1-1.9-4.9-5.6-0.4-1.6-0.4-3.4-1.3-4.8-0.9-1.7-2.9-2.7-4.4-3.8-0.7-0.6-1.5-1.2-2.2-1.8 3.3 0.7 6.8 1.9 9.1 4.5 0.5-2.8-4.6-4-6.4-4.9-1.1-0.6-2.2-1.4-3.1-2.3-0.5-0.6-0.6-1.4-0.9-2.1 2 1.8 5 3.1 7.3 4q1.7 0.6 3.4 1.1z"/>
				<path id="&lt;Path&gt;" fill-rule="evenodd" class="s14" d="m56.8 166.4c-0.3-0.3-0.7-0.6-1-1 0.6 0.1 0.8 0.5 1 1z"/>
			</g>
		</g>
	</g>
</svg>