<?xml version="1.0" encoding="UTF-8" standalone="no"?>
<!-- Created with Inkscape (http://www.inkscape.org/) -->

<svg
   xmlns:dc="http://purl.org/dc/elements/1.1/"
   xmlns:cc="http://creativecommons.org/ns#"
   xmlns:rdf="http://www.w3.org/1999/02/22-rdf-syntax-ns#"
   xmlns:svg="http://www.w3.org/2000/svg"
   xmlns="http://www.w3.org/2000/svg"
   xmlns:sodipodi="http://sodipodi.sourceforge.net/DTD/sodipodi-0.dtd"
   xmlns:inkscape="http://www.inkscape.org/namespaces/inkscape"
   version="1.1"
   id="svg8195"
   width="400"
   height="400"
   viewBox="0 0 400 400"
   sodipodi:docname="201409_cow.svg"
   inkscape:version="0.92.2 (5c3e80d, 2017-08-06)">
  <metadata
     id="metadata8201">
    <rdf:RDF>
      <cc:Work
         rdf:about="">
        <dc:format>image/svg+xml</dc:format>
        <dc:type
           rdf:resource="http://purl.org/dc/dcmitype/StillImage" />
        <dc:title></dc:title>
      </cc:Work>
    </rdf:RDF>
  </metadata>
  <defs
     id="defs8199" />
  <sodipodi:namedview
     pagecolor="#ffffff"
     bordercolor="#666666"
     borderopacity="1"
     objecttolerance="10"
     gridtolerance="10"
     guidetolerance="10"
     inkscape:pageopacity="0"
     inkscape:pageshadow="2"
     inkscape:window-width="1920"
     inkscape:window-height="1017"
     id="namedview8197"
     showgrid="false"
     inkscape:zoom="1.06"
     inkscape:cx="213.17149"
     inkscape:cy="176.40855"
     inkscape:window-x="-8"
     inkscape:window-y="-8"
     inkscape:window-maximized="1"
     inkscape:current-layer="svg8195" />
  <path
     style="fill:#d5d0c9"
     d="m 73.803607,64.821236 c -2.46803,0.02222 -4.7061,1.576679 -6.58789,4.662109 -1.61205,2.64316 -5.20431,4.438045 -13.53906,6.765625 -2.12684,0.59395 -5.61434,2.741827 -7.75,4.773437 -4.00489,3.80972 -4.46237,5.452329 -3.94531,14.167969 0.28448,4.79515 -6.25297,14.864674 -15.42188,23.753904 l -6.61914,6.41602 0.60352,5.58398 c 1.02492,9.47873 1.05524,9.52929 6.73828,11.88477 5.91087,2.44992 10.39758,2.7748 14.22852,1.0293 2.15518,-0.98196 3.84558,-0.72132 10.625,1.63867 6.86178,2.38865 9.0697,2.72236 14.84375,2.23828 l 6.7832,-0.56836 3.94531,4.17969 c 13.21455,14.00527 20.08624,24.5024 22.910163,34.99804 8.60657,31.98791 12.82196,40.73182 23.02539,47.75196 3.67173,2.52621 4.39844,3.56145 4.39844,6.26758 0,5.5618 3.06582,25.59486 4.56836,29.85351 2.15685,6.11319 1.69657,15.10971 -1.3711,26.82422 -2.66838,10.18974 -2.92943,10.68572 -8.47461,16.05664 -7.75775,7.51398 -7.21818,11.92774 1.45703,11.92774 3.43618,0 3.93344,0.25992 3.35352,1.75 -0.78351,2.01319 -0.80992,2.19608 -0.65039,4.34765 0.0651,0.87845 1.12969,2.08481 2.36719,2.68164 9.66665,4.66205 27.6705,-3.45551 23.78125,-10.72265 -1.84409,-3.44572 -1.22659,-4.90992 2.21093,-5.24219 4.19224,-0.40523 4.5716,-2.5266 1.31055,-7.33203 -3.67816,-5.42007 -4.87958,-10.89353 -4.16797,-18.98242 0.6481,-7.36694 3.51121,-19.56449 5.43555,-23.16016 1.56964,-2.93289 6.20969,-27.09806 5.53906,-28.8457 -0.29948,-0.78044 0.20394,-3.67427 1.11914,-6.42969 1.46446,-4.40905 2.10622,-5.13205 5.34375,-6.03125 5.76176,-1.6003 12.345,-1.21946 18.77149,1.08594 6.841,2.45409 11.21036,2.60447 45.2207,1.55664 27.62988,-0.85126 30.4067,-0.39855 31.78711,5.1875 1.13423,4.58988 5.68632,5.42462 6.19922,1.13672 0.74901,-6.26193 3.41176,-6.01074 4.62109,0.43554 0.94574,5.04125 3.30006,6.5849 5.53125,3.62696 l 1.76563,-2.33985 2.60546,5.38867 c 3.47257,7.18284 4.66093,15.49737 4.66993,32.67188 0.009,16.68882 -0.77573,19.36738 -7.75196,26.46875 -4.2907,4.36766 -4.53895,4.88096 -3.05859,6.36133 5.2707,5.27069 23.19257,1.29714 21.2832,-4.71875 -0.43478,-1.36987 0.24956,-2.75965 2.30078,-4.67578 l 2.91797,-2.72657 -0.51367,-13.49609 c -0.95574,-25.10002 -0.22342,-55.68406 1.34766,-56.24805 0.37934,-0.13618 1.76081,2.67696 3.06836,6.25196 1.30755,3.575 3.00403,7.85 3.77148,9.5 2.38711,5.13221 4.96687,23.37237 5.37305,38 0.4462,16.06906 0.0677,19.02305 -3.02344,23.65039 -1.23102,1.84282 -3.11124,5.31755 -4.17969,7.72265 l -1.94336,4.37305 2.31836,1.87695 c 1.69039,1.3688 3.93843,1.87696 8.30274,1.87696 9.65612,0 14.72192,-4.47356 11.95117,-10.55469 -0.92504,-2.03024 -0.78835,-2.57179 0.87305,-3.46094 2.47148,-1.3227 2.5084,-3.18651 0.10742,-5.35937 -5.22262,-4.72641 -6.30615,-26.47724 -2.49805,-50.125 2.28716,-14.2029 2.19358,-15.51196 -1.46289,-20.60352 -6.49436,-9.04322 -6.62469,-34.90587 -0.33203,-65.88672 3.76239,-18.5235 5.63597,-15.1395 7.19336,12.99023 1.02943,18.59372 5.05434,45.34406 7.54687,50.16407 0.82451,1.59442 2.83004,4.997 4.45703,7.5625 1.62699,2.5655 2.95704,5.48828 2.95704,6.49414 0,1.07931 1.74181,2.88809 4.25,4.41406 2.3375,1.42212 5.49309,4.34863 7.01171,6.50391 1.51862,2.15528 3.95641,4.37401 5.41797,4.92968 1.46155,0.55569 3.25755,1.77984 3.99024,2.72071 1.24014,1.59253 1.46446,1.55552 3.24218,-0.53906 1.0503,-1.2375 2.40067,-2.25 3,-2.25 1.84356,0 1.23756,-5.7817 -0.7539,-7.19336 -1.01386,-0.71868 -2.64828,-3.00884 -3.63086,-5.08985 -0.98259,-2.08102 -4.36089,-6.13102 -7.50781,-9 -7.04995,-6.4273 -17.96376,-22.32057 -20.40625,-29.71679 -1.3272,-4.01896 -2.05139,-10.75096 -2.6875,-25.00001 -0.98544,-22.07407 -2.29809,-34.61962 -4.29883,-41.07421 -0.7545,-2.4341 -2.15022,-7.12579 -3.10156,-10.42579 -3.371,-11.6933 -6.52556,-15.5 -12.84766,-15.5 -4.9922,0 -17.4262,-3.82899 -24.51563,-7.54882 l -7.33984,-3.84961 -17.16016,-0.70508 c -18.00291,-0.73903 -27.1382,-1.63161 -52.6621,-5.14258 -9.02123,-1.24092 -19.47086,-2.034108 -25,-1.898438 -23.57044,0.57836 -35.38243,0.505515 -47.0879,-0.291015 -11.47061,-0.78056 -13.21833,-0.666398 -19.65624,1.289062 -7.42177,2.25429 -15.25586,2.843155 -15.25586,1.146485 0,-0.55 0.74609,-1 1.65625,-1 6.17919,0 14.90173,-18.42599 11.36132,-24 -2.54204,-4.00217 -16.2333,-1.091352 -24.16015,5.136718 -2.00415,1.57464 -4.373953,2.863282 -5.265633,2.863282 -2.90956,0 -12.78067,-6.248969 -16.85937,-10.673828 -2.80516,-3.043235 -5.50267,-4.553472 -7.97071,-4.53125 z"
     id="path8934"
     inkscape:connector-curvature="0" />
  <path
     inkscape:connector-curvature="0"
     id="path9586"
     d="m 331.10456,305.9101 c -0.39452,-1.48824 -1.2189,-3.96324 -1.83196,-5.5 l -1.11466,-2.7941 -1.26971,2.97576 c -1.09808,2.57352 -1.80127,2.97903 -5.20227,3 l -3.93256,0.0242 0.91394,-4.28774 c 0.50267,-2.35826 0.76138,-11.18894 0.57491,-19.62374 -0.2529,-11.43997 -0.041,-15.22134 0.83428,-14.8847 1.6547,0.63646 3.32669,-2.93365 3.32669,-7.10328 0,-3.70218 -5.27856,-11.16445 -7.10074,-10.03828 -0.91979,0.56846 -1.25452,-1.90053 -0.92711,-6.83841 0.10124,-1.52688 -0.94405,-5.80188 -2.32287,-9.5 -1.37881,-3.69812 -3.69594,-10.77385 -5.14916,-15.72385 -1.72857,-5.88791 -4.21862,-11.39748 -7.20107,-15.93337 -4.21563,-6.41137 -4.60739,-7.5576 -5.20356,-15.22461 -0.75743,-9.74096 -2.15347,-12.06437 -4.51039,-7.50658 -3.4552,6.68161 -1.45243,13.35963 6.93199,23.11408 4.46091,5.18983 6.49416,8.75961 6.47353,11.36558 -0.005,0.65169 -1.32871,-1.11533 -2.94121,-3.92673 -3.18774,-5.55784 -7.98897,-10.12274 -12.18543,-11.58563 -2.56951,-0.89574 -2.64417,-1.13527 -2.12805,-6.8271 0.34432,-3.79727 -0.2896,-11.03688 -1.77937,-20.32096 l -2.31425,-14.42217 3.35027,-5.22095 c 4.49006,-6.99715 4.86897,-13.35427 0.82382,-13.82158 -1.47598,-0.1705 -4.03429,0.38845 -5.68511,1.24213 -2.77151,1.4332 -3.04201,1.41864 -3.53002,-0.18998 -1.55805,-5.13578 -2.66044,-16.42737 -2.07203,-21.22344 l 0.67247,-5.48132 1.57092,2.98132 c 0.864,1.63972 2.08027,4.6949 2.70282,6.78928 0.62255,2.09438 1.54464,3.83692 2.0491,3.8723 0.75248,0.0528 6.33638,-8.95657 7.8591,-12.68027 0.22491,-0.55 1.23291,0.125 2.24,1.5 1.00708,1.375 4.20375,5.08359 7.10371,8.24131 5.71984,6.22827 6.35125,8.11107 3.27264,9.75869 -3.14792,1.68472 -2.82445,9.56365 0.5,12.17866 1.92128,1.51128 2.5,2.89125 2.5,5.96131 0,3.48458 0.24529,3.91695 1.92046,3.38528 1.30061,-0.4128 2.67645,0.20577 4.26274,1.91653 l 2.3423,2.52605 2.76934,-3.4707 c 3.13076,-3.92365 4.21672,-15.83923 1.84529,-20.24713 -1.25861,-2.33942 0.0639,-3.17148 2.35987,-1.48469 3.4724,2.55113 4.54728,7.04686 3.42076,14.30745 -0.61442,3.96002 -0.82923,9.50427 -0.47736,12.32055 0.42873,3.43138 0.0885,7.26243 -1.03131,11.6136 -1.37355,5.33704 -1.51612,8.36255 -0.80076,16.99309 0.47868,5.775 0.72551,17.78021 0.54853,26.67825 -0.26192,13.16811 -0.0276,16.7963 1.25912,19.5 1.61382,3.3909 6.81419,7.55868 8.76766,7.02675 0.72106,-0.19635 0.87023,1.0379 0.44604,3.69063 -3.57145,22.33463 -4.24814,37.04783 -2.16037,46.97275 1.54651,7.35183 0.83767,21.99403 -0.77097,15.92572 z M 291.79778,276.616 c 0.002,-7.7 0.15853,-10.71781 0.34883,-6.70625 0.1903,4.01156 0.18902,10.31156 -0.003,14 -0.19169,3.68844 -0.34739,0.40625 -0.34583,-7.29375 z m -157.1222,3.5 c 0,-2.475 0.19502,-3.4875 0.43337,-2.25 0.23836,1.2375 0.23836,3.2625 0,4.5 -0.23835,1.2375 -0.43337,0.225 -0.43337,-2.25 z m 169.92259,-16.5 c 0.0204,-1.65 0.2445,-2.20394 0.49804,-1.23097 0.25354,0.97297 0.23687,2.32297 -0.0371,3 -0.27393,0.67703 -0.48137,-0.11903 -0.46099,-1.76903 z m 67.37007,-6.60521 c 0.26238,-0.42453 -0.31617,-1.21578 -1.28566,-1.75833 -0.96948,-0.54255 -1.50572,-1.24343 -1.19164,-1.55751 0.31408,-0.31409 1.55582,0.47716 2.75941,1.75833 1.62419,1.72887 1.80841,2.32939 0.7146,2.32939 -0.81057,0 -1.25908,-0.34735 -0.99671,-0.77188 z m -3.12793,-19.14479 -2.93709,-3.25 3.25,2.93709 c 1.7875,1.6154 3.25,3.0779 3.25,3.25 0,0.77256 -0.82513,0.0924 -3.56291,-2.93709 z m -62.15108,-4.25 c 0.008,-2.75 0.20172,-3.75631 0.43157,-2.23625 0.22986,1.52006 0.22371,3.77006 -0.0136,5 -0.23736,1.22994 -0.42542,-0.0137 -0.41792,-2.76375 z m -188.84892,-4.75 -2.93709,-3.25 3.25,2.93709 c 1.7875,1.6154 3.25,3.0779 3.25,3.25 0,0.77256 -0.82513,0.0924 -3.56291,-2.93709 z m 225.92341,-45.75 c 0,-5.225 0.16854,-7.3625 0.37454,-4.75 0.206,2.6125 0.206,6.8875 0,9.5 -0.206,2.6125 -0.37454,0.475 -0.37454,-4.75 z m -6.02429,-5 c 0,-4.125 0.17651,-5.8125 0.39226,-3.75 0.21574,2.0625 0.21574,5.4375 0,7.5 -0.21575,2.0625 -0.39226,0.375 -0.39226,-3.75 z m 4.85874,-18.5 c 0.0204,-1.65 0.2445,-2.20394 0.49804,-1.23097 0.25354,0.97297 0.23687,2.32297 -0.0371,3 -0.27393,0.67703 -0.48137,-0.11903 -0.46099,-1.76903 z m -11.19495,-10.55902 c 0,-1.13246 0.43035,-1.79305 0.95633,-1.46797 0.52598,0.32507 0.70283,1.25163 0.39301,2.05902 -0.79323,2.06711 -1.34934,1.82352 -1.34934,-0.59105 z M 21.598166,136.616 c 0.02038,-1.65 0.244498,-2.20394 0.498042,-1.23097 0.253543,0.97297 0.236869,2.32297 -0.03705,3 -0.273927,0.67703 -0.481372,-0.11903 -0.460992,-1.76903 z M 268.68339,102.37973 c 2.6291,-0.20668 6.6791,-0.20418 9,0.006 2.32091,0.20972 0.16983,0.37882 -4.78017,0.37577 -4.95,-0.003 -6.84892,-0.17464 -4.21983,-0.38131 z m -98.53017,-5.995935 c 2.3375,-0.210535 6.1625,-0.210535 8.5,0 2.3375,0.210535 0.425,0.382791 -4.25,0.382791 -4.675,0 -6.5875,-0.172256 -4.25,-0.382791 z m -22.98834,-1.975056 c 1.24391,-0.239193 3.04391,-0.230112 4,0.02018 0.95609,0.250292 -0.0617,0.445996 -2.26166,0.434897 -2.2,-0.0111 -2.98225,-0.215885 -1.73834,-0.455077 z"
     style="fill:#e0e0e0" />
  <path
     inkscape:connector-curvature="0"
     id="path9584"
     d="m 147.87511,316.49026 c -3.5835,-4.69821 -4.2465,-11.3443 -2.06361,-20.68631 0.87544,-3.74663 1.59172,-8.18723 1.59172,-9.86799 0,-1.96952 1.06653,-4.27064 3,-6.47274 1.65,-1.87925 3,-4.3493 3,-5.48901 0,-2.08107 -0.0369,-2.08228 -4.74915,-0.15561 -0.68704,0.2809 -2.66978,-0.99977 -4.40609,-2.84594 l -3.15695,-3.35666 0.70657,4.5 c 0.38861,2.475 1.48573,5.85 2.43804,7.5 2.16562,3.75219 1.41343,11.02085 -2.44899,23.66574 l -2.64698,8.66575 -3.61823,-0.565 c -7.36478,-1.15003 -7.17921,-0.31681 -3.40012,-15.26649 2.47724,-9.7997 3.27058,-14.80196 2.89438,-18.25 -0.38956,-3.57054 -0.18405,-4.75 0.82765,-4.75 0.74024,0 1.66846,-0.7875 2.06271,-1.75 0.79725,-1.94637 0.69808,-33.11589 -0.10952,-34.42261 -0.28124,-0.45506 0.12952,-0.82739 0.9128,-0.82739 0.78329,0 2.49735,-0.8453 3.80902,-1.87845 l 2.38486,-1.87846 -0.5886,10.12846 c -0.32373,5.57065 -0.95447,10.9683 -1.40163,11.99478 -1.77071,4.06473 3.28995,-0.32086 5.30737,-4.59938 3.10517,-6.5854 3.61153,-11.85436 1.57512,-16.39002 -1.2522,-2.789 -1.6632,-5.9041 -1.46464,-11.10089 0.32079,-8.39597 -1.81303,-13.99552 -7.17508,-18.82876 -1.7889,-1.61248 -2.69004,-2.28277 -2.00254,-1.48953 2.06557,2.38326 1.42757,6.3707 -1.84501,11.53101 -1.71437,2.70328 -3.57744,7.47451 -4.1765,10.69578 -0.59483,3.1985 -1.33957,5.80115 -1.655,5.78366 -4.32021,-0.23958 -6.91147,-10.90016 -4.13642,-17.01749 3.82256,-8.42648 0.59642,-14.45845 -5.01629,-9.37902 -1.62993,1.47507 -1.77986,1.1111 -2.43873,-5.92002 -0.39144,-4.17714 -0.2831,-8.74378 0.24485,-10.32169 0.91084,-2.72223 0.99414,-2.62057 2.1878,2.67002 1.91223,8.47545 2.02035,8.71677 3.12378,6.97197 1.63422,-2.58411 1.07045,-9.01025 -1.05198,-11.99092 -1.67642,-2.35432 -1.82273,-3.24638 -0.87396,-5.32869 l 1.13953,-2.501 3.13349,4.67432 c 2.90846,4.33863 3.43812,4.67432 7.37526,4.67432 2.33297,0 4.24118,0.32184 4.24047,0.7152 -7.1e-4,0.39337 1.33183,2.23354 2.96119,4.08929 1.77926,2.02646 3.23172,5.05776 3.63657,7.58956 1.88227,11.77107 12.40095,15.56686 12.40095,4.47503 0,-4.1357 0.11415,-4.31474 2,-3.13701 1.15979,0.72431 2,2.33203 2,3.82698 0,1.41787 0.63222,4.79712 1.40493,7.50945 3.8167,13.39711 2.08658,26.93743 -3.78032,29.58559 -5.30247,2.39338 -7.12461,6.05972 -7.12461,14.33546 0,5.94811 0.4089,7.89596 2.15269,10.25455 l 2.15268,2.91166 -2.40075,9.92212 c -3.10264,12.82299 -3.08462,21.16928 0.0614,28.42212 l 2.3857,5.5 -2.66811,3 c -1.46745,1.65 -2.93985,3.35826 -3.27198,3.79613 -0.33213,0.43787 -1.88001,-0.87697 -3.43973,-2.92187 z M 318.7483,263.57287 c -0.32569,-0.84872 -0.31156,-1.82372 0.0314,-2.16666 0.34295,-0.34295 0.62354,0.1746 0.62354,1.15011 0,1.19212 0.50884,1.5784 1.55194,1.17812 0.88992,-0.34149 1.29132,-0.17385 0.94098,0.39301 -0.90972,1.47196 -2.47608,1.196 -3.14784,-0.55458 z M 304.6554,257.616 c 0.0111,-2.2 0.21589,-2.98225 0.45508,-1.73834 0.23919,1.24391 0.23011,3.04391 -0.0202,4 -0.25029,0.95609 -0.446,-0.0617 -0.4349,-2.26166 z M 115.9558,225.99612 c -3.57362,-4.24701 -4.96601,-7.1348 -7.56192,-15.68325 -2.69939,-8.88923 -2.22145,-9.78999 1.83795,-3.46396 2.41333,3.76084 9.52975,22.26709 8.56263,22.26709 -0.1174,0 -1.3948,-1.40395 -2.83866,-3.11988 z m 154.52758,-20.57326 c -3.04985,-2.78058 -3.06505,-2.84431 -1.62331,-6.80686 3.877,-10.65576 -0.69198,-16.41871 -7.56668,-9.54401 -4.20975,4.20974 -5.90135,3.15312 -5.26883,-3.29103 1.09375,-11.14329 1.79367,-11.64563 9.00763,-6.46496 5.82896,4.18605 10.65046,4.33903 14.00062,0.44424 2.73448,-3.17902 3.06604,-6.82203 0.79261,-8.70881 -1.42194,-1.1801 -1.37935,-1.46386 0.43109,-2.87244 1.10489,-0.85965 2.39974,-3.11383 2.87745,-5.00929 0.76892,-3.05094 1.08013,-2.06691 2.71271,8.57758 2.13635,13.92907 1.79625,20.90279 -1.19092,24.42037 -1.14355,1.34659 -3.58068,4.43802 -5.41585,6.86984 -4.22727,5.60163 -4.9984,5.8117 -8.75652,2.38537 z m -61.58016,-9.36007 c -2.75,-1.07196 -8.57773,-3.90669 -12.95051,-6.29942 -8.20572,-4.49006 -8.26356,-4.56362 -10.53417,-13.39737 -0.60082,-2.3375 -1.47047,-4.25 -1.93254,-4.25 -1.16776,0 -2.9646,4.64286 -3.87011,10 -0.63784,3.7735 -1.16038,4.55496 -3.23665,4.84045 -1.36181,0.18724 -3.9085,1.42474 -5.6593,2.75 -3.93185,2.97617 -3.7991,2.98776 -3.90051,-0.34045 -0.0461,-1.5125 -0.41503,-4.55 -0.81989,-6.75 -1.03115,-5.60328 1.21665,-8.88422 4.2228,-6.1637 2.67136,2.41756 3.42877,0.15628 3.497,-10.44051 0.0552,-8.57841 -0.84737,-10.62743 -7.44699,-16.9055 -4.2889,-4.07993 -4.73491,-6.49411 -2.5496,-13.80053 0.83686,-2.798 2.14722,-4.7291 3.73482,-5.50406 1.34511,-0.65659 3.41002,-3.20211 4.58869,-5.6567 l 2.14305,-4.4629 2.15362,7.23145 c 1.70923,5.73929 3.24193,8.45114 7.42794,13.14249 2.90088,3.25107 6.67799,8.53205 8.39358,11.7355 1.71559,3.20345 4.06059,6.61992 5.21111,7.59215 1.79887,1.52012 2.00045,2.45669 1.43928,6.68703 -1.10088,8.29886 5.32477,15.56453 10.762,12.16892 1.45548,-0.90896 1.96103,-0.88589 2.27312,0.10371 0.22074,0.69996 0.9181,2.95311 1.5497,5.00701 1.34851,4.38529 5.20283,7.75937 8.88842,7.78095 3.79548,0.0222 8.29093,4.47556 6.41329,6.35321 -1.43951,1.43951 -14.94616,0.46957 -19.79815,-1.42173 z m -95.65788,-1.32028 c -1.30095,-0.95129 -1.4221,-1.62566 -0.56664,-3.15428 1.01062,-1.80587 1.144,-1.73528 1.87324,0.99146 0.94386,3.52921 0.82687,3.72285 -1.3066,2.16282 z M 99.087625,178.58039 c -1.655028,-3.47063 -1.649242,-3.51594 0.314787,-2.46482 1.170288,0.62632 2.000808,2.09392 2.000808,3.53561 0,3.26742 -0.31668,3.12098 -2.315595,-1.07079 z M 77.840308,150.866 l -2.937091,-3.25 3.25,2.93709 c 3.029455,2.73778 3.709652,3.56291 2.937091,3.56291 -0.1721,0 -1.6346,-1.4625 -3.25,-3.25 z m 13.868185,1.06319 c -0.574472,-0.72226 -1.345601,-2.9849 -1.713618,-5.02811 -0.874717,-4.85637 -2.044194,-5.42993 -4.742917,-2.32613 -2.606519,2.99776 -4.361109,3.36694 -2.883925,0.60679 1.63215,-3.0497 1.236983,-3.42798 -1.62324,-1.55389 l -2.658424,1.74186 2.027228,-2.87685 c 3.728319,-5.29089 3.977679,-9.52873 0.360512,-6.12686 -1.092468,1.02744 -1.215564,0.76778 -0.69138,-1.45844 l 0.637729,-2.70843 -2.960633,1.69917 c -1.628347,0.93454 -3.188635,2.6076 -3.467305,3.71791 -0.496306,1.97744 -9.511699,6.56584 -15.853574,8.06871 -4.364833,1.03435 -20.452902,-5.34998 -21.231004,-8.42523 -0.376298,-1.48723 -0.05217,-2.77815 0.878799,-3.5 0.811247,-0.62903 1.670546,-2.26869 1.909553,-3.64369 0.42456,-2.44248 0.437692,-2.43673 0.570741,0.25 0.09044,1.82625 0.686836,2.75 1.775473,2.75 1.860853,0 1.354094,-9.40661 -0.612716,-11.37342 -1.590792,-1.5908 -1.291232,-2.18734 2.581846,-5.14148 3.653305,-2.78651 6.147735,-2.09974 4.882052,1.34414 -0.363623,0.9894 0.229828,1.17147 2.321232,0.71212 3.061393,-0.6724 5.401802,1.15256 6.623462,5.16472 0.766536,2.51744 6.047849,7.29392 8.064833,7.29392 0.740602,0 2.777628,-1.20417 4.526725,-2.67594 2.651282,-2.23091 3.492481,-2.4809 5.058033,-1.5032 1.648708,1.02963 2.12018,0.69775 3.863649,-2.71973 4.09009,-8.01724 6.178551,-8.73276 9.051593,-3.10113 2.631428,5.15803 3.613714,5.03849 6.163024,-0.75 l 2.09195,-4.75 0.854836,3 c 0.545182,1.91328 0.306197,6.62238 -0.659744,13 -0.83302,5.5 -1.785929,12.025 -2.117575,14.5 -0.800201,5.97171 -1.631464,7.56799 -3.027215,5.81319 z m -28.036244,-4.50618 c 0.972967,-0.25354 2.322967,-0.23687 3,0.0371 0.677032,0.27393 -0.119032,0.48137 -1.769032,0.46099 -1.65,-0.0204 -2.203936,-0.2445 -1.230968,-0.49804 z m 140.319861,-5.38374 c -3.39743,-4.03761 -3.40792,-8.03601 -0.0252,-9.60556 2.33791,-1.08476 2.70812,-0.9198 4.48846,2 2.20005,3.60815 2.52331,7.70684 0.74786,9.48229 -1.74754,1.74754 -2.34147,1.53364 -5.21111,-1.87673 z m 68.41111,-5.73273 c 0,-6.34165 -0.8568,-7.7716 -5,-8.34472 -3.90829,-0.54062 -4.16725,-5.58129 -0.30946,-6.02366 1.99545,-0.22882 2.89916,-0.95206 3.11906,-2.4962 0.17028,-1.19572 1.40778,-2.89359 2.75,-3.77305 3.1423,-2.05892 3.08709,-3.89907 -0.19446,-6.48033 L 270.1335,107.116 h 2.72848 c 1.83962,0 2.89034,-0.61897 3.22535,-1.90003 0.61097,-2.33637 7.70681,-3.66224 11.6257,-2.17228 4.40932,1.67642 4.40273,5.05679 -0.0259,13.29031 -4.52469,8.41213 -5.13867,8.71058 -6.75178,3.282 -0.65373,-2.2 -1.89552,-5.34159 -2.75952,-6.98131 l -1.57092,-2.98132 -0.67247,5.48132 c -0.58375,4.75808 0.51008,16.06655 2.04447,21.13663 0.32068,1.05962 -0.59208,2.43363 -2.53637,3.81809 l -3.03732,2.16278 z M 35.403217,123.40769 c -2.737748,-1.20865 -4.537603,-1.33687 -8.264317,-0.58874 l -4.764316,0.95643 2.18863,-2.32969 c 2.219755,-2.36282 3.418604,-3.0749 2.398794,-1.42482 -0.315997,0.5113 1.102094,0.68205 3.260317,0.39257 3.113631,-0.41763 4.361203,-0.0362 6.750226,2.06352 3.366694,2.95907 3.220938,3.04552 -1.569334,0.93073 z M 57.164111,96.252624 c 0.408102,-4.2472 0.171267,-5.070732 -1.869299,-6.5 -2.389961,-1.673994 -2.051849,-1.990265 1.799695,-1.683443 1.560745,0.124332 2.684253,-0.779007 3.904448,-3.139309 C 63.771347,79.567054 68.59621,74.116 70.570582,74.116 c 1.229307,0 1.837676,-0.74073 1.847948,-2.25 0.04059,-5.963914 7.484164,-5.061555 12.933858,1.567927 l 2.44917,2.979384 -3.628814,-0.68077 C 73.983489,73.821026 65.781652,79.773337 60.479125,92.92769 c -1.815392,4.50357 -3.409075,8.18831 -3.541518,8.18831 -0.132443,0 -0.03052,-2.188519 0.226504,-4.863376 z"
     style="fill:#d1d1d1" />
  <path
     inkscape:connector-curvature="0"
     id="path9582"
     d="m 127.67225,323.42301 c 0.97297,-0.25354 2.32297,-0.23687 3,0.0371 0.67703,0.27393 -0.11903,0.48137 -1.76903,0.46099 -1.65,-0.0204 -2.20394,-0.2445 -1.23097,-0.49804 z m 16.23097,-4.14341 c -3.3,-0.86406 -6.12164,-1.63849 -6.27032,-1.72096 -0.14867,-0.0825 1.30646,-5.179 3.23363,-11.32563 4.69331,-14.9691 5.66321,-22.63541 3.36742,-26.61701 -0.95138,-1.65 -2.04774,-5.025 -2.43635,-7.5 l -0.70657,-4.5 3.15695,3.35666 c 1.96565,2.09001 3.72265,3.12774 4.65609,2.75 0.82453,-0.33366 2.17415,-0.8798 2.99915,-1.21365 2.6505,-1.07255 1.70701,3.30163 -1.5,6.95421 -1.93347,2.2021 -3,4.50322 -3,6.47274 0,1.68076 -0.71628,6.12136 -1.59172,9.86799 -2.28787,9.7913 -1.54562,16.08823 2.49823,21.19401 1.79385,2.26492 2.88624,4.05833 2.42752,3.98535 -0.45872,-0.073 -3.53403,-0.83965 -6.83403,-1.70371 z M 318.88114,260.366 c -1.20741,-7.38977 -1.63422,-9.77965 -2.09846,-11.75 -0.34441,-1.46181 0.3465,-1.07062 2.56757,1.45373 3.47208,3.94619 4.75376,8.86832 3.10932,11.94097 -1.6726,3.12529 -2.89053,2.56551 -3.57843,-1.6447 z m -181.17826,-18.25 c 0,-3.025 0.18747,-4.2625 0.41659,-2.75 0.22913,1.5125 0.22913,3.9875 0,5.5 -0.22912,1.5125 -0.41659,0.275 -0.41659,-2.75 z m -9.10471,-1.5 c 0.0204,-1.65 0.2445,-2.20394 0.49804,-1.23097 0.25354,0.97297 0.23687,2.32297 -0.037,3 -0.27393,0.67703 -0.48137,-0.11903 -0.46099,-1.76903 z m 182.49471,-9.18966 c -2.04719,-5.83615 -3.48984,-10.84349 -3.20591,-11.12743 0.70398,-0.70397 0.59473,-0.96206 4.46235,10.54192 1.89066,5.62366 3.2189,10.44351 2.95164,10.71077 -0.26727,0.26726 -2.1609,-4.2891 -4.20808,-10.12526 z m 16.88154,4.32158 c -1.96416,-1.85244 -3.64234,-4.43994 -3.72929,-5.75 -0.17114,-2.57844 -0.89325,-39.97104 -0.99227,-51.38192 -0.0504,-5.80396 0.59499,-8.70862 3.77708,-17 4.74873,-12.37347 5.30183,-10.48593 1.8123,6.18476 -2.9381,14.03634 -4.26513,36.00699 -2.99408,49.57096 0.58024,6.19202 1.32242,8.50278 4.13119,12.86244 5.49671,8.53178 4.39823,11.55272 -2.00493,5.51376 z M 132.18991,228.116 c 0.24217,-1.65 0.61423,-3 0.82681,-3 0.21257,0 0.3865,1.35 0.3865,3 0,1.65 -0.37206,3 -0.82681,3 -0.45474,0 -0.62867,-1.35 -0.3865,-3 z m 95.46331,0.28375 c 1.5125,-0.22913 3.9875,-0.22913 5.5,0 1.5125,0.22912 0.275,0.41659 -2.75,0.41659 -3.025,0 -4.2625,-0.18747 -2.75,-0.41659 z m 4.48956,-2.88499 c -10.42071,-3.35954 -11.02362,-3.71697 -19.09598,-11.32063 -11.82329,-11.13682 -14.53461,-11.30732 -27.54182,-1.73196 -5.33261,3.92565 -12.31921,6.76971 -13.5664,5.52252 -0.43264,-0.43264 2.19409,-10.93148 2.91546,-11.65285 0.2677,-0.2677 1.28828,0.92138 2.26796,2.64239 2.24184,3.9383 4.40646,3.97007 7.65254,0.11233 3.14074,-3.73256 4.02839,-8.13999 3.40215,-16.89259 l -0.48253,-6.74394 11.87226,6.07638 c 11.15716,5.71037 12.35848,6.09845 19.94456,6.44295 4.53539,0.20597 8.50706,-0.0682 9.06457,-0.62569 1.56301,-1.56301 6.66902,1.3976 12.97834,7.52521 6.3827,6.19887 7.84933,6.11855 7.84933,-0.42988 0,-3.59895 0.60739,-5.25074 2.88437,-7.84408 1.5864,-1.80681 3.07545,-3.85839 3.30901,-4.55907 0.23356,-0.70067 0.93353,-0.95945 1.55548,-0.57506 0.82296,0.50862 0.73883,1.63708 -0.30901,4.14493 -3.91441,9.3685 1.80802,16.35331 8.17856,9.98278 l 2.52751,-2.52751 2.79307,2.27751 c 1.5362,1.25262 3.62943,2.76933 4.65164,3.37046 1.72359,1.01359 1.54461,1.46795 -2.46442,6.25629 -12.49538,14.92437 -20.40665,16.99089 -40.38665,10.54951 z m 72.85025,-12.98074 c -1.28005,-5.09591 -2.77866,-7.93418 -6.6375,-12.57105 -8.70874,-10.46462 -10.52782,-15.89959 -7.36721,-22.01153 2.33765,-4.52052 3.62087,-2.33268 4.40228,7.50572 0.60889,7.66621 1.00847,8.88523 4.44858,13.57159 4.82581,6.57407 10.00892,20.08725 7.70467,20.08725 -0.49362,0 -1.64149,-2.96189 -2.55082,-6.58198 z m -141.33981,-1.61084 c -1.63421,-6.13525 -1.57975,-9.28862 0.18572,-10.75383 0.78965,-0.65535 1.74392,-2.59477 2.12061,-4.30982 0.62327,-2.83771 3.83934,-6.628 5.69367,-6.71026 2.2097,-0.098 0.51711,7.83924 -2.68593,12.59548 -2.32908,3.45849 -3.5371,6.51451 -3.75,9.48665 l -0.31407,4.3846 z m -46.51172,-3.48367 c -0.30405,-3.20293 -0.88578,-6.72351 -1.29273,-7.82351 -0.52563,-1.4208 -0.42275,-1.7104 0.35524,-1 1.37996,1.26007 3.11785,12.01362 2.18536,13.5224 -0.38227,0.61854 -0.94381,-1.49597 -1.24787,-4.69889 z m 2.26172,-5.32351 c 0,-2.2 0.17773,-4 0.39496,-4 0.21724,0 0.56663,1.8 0.77643,4 0.2098,2.2 0.0321,4 -0.39496,4 -0.42704,0 -0.77643,-1.8 -0.77643,-4 z m 8.45,2.09706 c -0.5225,-0.49661 -1.85,-1.11941 -2.95,-1.38399 -1.89712,-0.45632 -1.89056,-0.48703 0.12756,-0.59707 1.17015,-0.0638 2.68775,0.559 3.37244,1.384 1.3575,1.63568 0.97716,2.04856 -0.55,0.59706 z M 62.48655,144.75145 c 0.229167,-0.2005 1.541667,-0.90032 2.916667,-1.55516 2.357268,-1.12265 2.389176,-1.10183 0.55887,0.36454 -1.592998,1.27626 -4.847861,2.39128 -3.475537,1.19062 z m 16.469453,-0.55004 c -0.321975,-0.52097 -0.159164,-1.21065 0.361804,-1.53262 0.520967,-0.32198 1.210648,-0.15917 1.532624,0.3618 0.321975,0.52097 0.159164,1.21065 -0.361804,1.53262 -0.520967,0.32198 -1.210648,0.15917 -1.532624,-0.3618 z m -42.41357,-22.11868 c -1.298431,-1.0817 -1.930676,-1.96673 -1.404988,-1.96673 0.525688,0 1.770286,0.9 2.765772,2 2.28688,2.52697 1.69506,2.5125 -1.360784,-0.0333 z m 3.985335,-0.1389 c -1.109561,-1.77669 -1.038875,-2.31874 0.483087,-3.70452 1.660007,-1.51148 1.692051,-1.50275 0.465149,0.12669 -1.064693,1.41401 -1.074817,2.04263 -0.05273,3.27417 0.69572,0.83829 1.071285,1.71782 0.83459,1.95452 -0.236696,0.23669 -1.015239,-0.50619 -1.730096,-1.65086 z m 259.821622,-1.57783 -3.44617,-3.75 3.75,3.44617 c 2.0625,1.89539 3.75,3.58289 3.75,3.75 0,0.76362 -0.84622,0.0443 -4.05383,-3.44617 z M 56.482164,92.833776 c -0.04342,-0.980224 -1.091447,-2.1892 -2.328947,-2.686614 -1.522615,-0.612016 -1.723841,-0.924881 -0.622445,-0.967776 2.056223,-0.08008 4.225655,2.460755 3.545933,4.152992 -0.319168,0.794601 -0.54567,0.604648 -0.594541,-0.498602 z"
     style="fill:#c9c9c9" />
  <path
     inkscape:connector-curvature="0"
     id="path9580"
     d="m 375.264,251.17634 -2.36078,-1.93967 2.20709,0.14924 c 1.21391,0.0821 2.00531,0.35102 1.75868,0.59765 -0.24663,0.24663 0.0528,1.05233 0.66535,1.79043 1.61773,1.94925 0.45792,1.64393 -2.27034,-0.59765 z M 293.40322,232.316 c 0,-2.4977 -1.95223,-4.2 -4.81663,-4.2 -1.9243,0 -2.31008,0.40745 -1.89362,2 0.33992,1.29986 0.0307,2 -0.88337,2 -0.77351,0 -1.40638,-0.85186 -1.40638,-1.89301 0,-3.63284 -7.82112,-4.50705 -8.74414,-0.97738 -0.52232,1.99735 -0.98822,2.08952 -7.50173,1.48416 -3.81965,-0.355 -7.86229,-1.13647 -8.98364,-1.7366 -1.94186,-1.03925 -1.88696,-1.16468 1.15448,-2.63769 4.15891,-2.01422 16.27344,-15.28004 15.58716,-17.06846 -0.6507,-1.69569 4.11822,-7.57814 4.99435,-6.16053 0.34607,0.55995 2.51119,1.95937 4.81137,3.10982 5.50607,2.75391 11.44765,8.53555 12.17504,11.84731 0.31993,1.45665 -0.10064,5.2681 -0.9346,8.46989 -0.83396,3.20179 -1.27418,6.21317 -0.97827,6.69196 0.29591,0.47879 -0.16354,0.87053 -1.021,0.87053 -0.85746,0 -1.55902,-0.81 -1.55902,-1.8 z M 34.330217,138.77732 c -2.750718,-2.0597 -3.236511,-4.84681 -0.780902,-4.48022 1.174915,0.17539 2.502891,1.31708 2.951059,2.53707 0.974229,2.65204 -0.02662,3.5482 -2.170157,1.94315 z m -8.934728,-8.46649 c -2.155389,-1.74533 -2.072654,-4.98058 0.09314,-3.64204 0.520968,0.32197 0.688316,1.00431 0.371885,1.51631 -0.316433,0.51199 0.126227,0.9309 0.983686,0.9309 0.902397,0 1.559017,-0.85896 1.559017,-2.03943 0,-1.68765 0.23744,-1.81762 1.376589,-0.7535 1.446355,1.3511 0.755495,4.91557 -1.070711,5.5243 -0.551714,0.18391 -2.042837,-0.50754 -3.313606,-1.53654 z m 7.043319,-4.84236 c -2.068724,-1.04988 -2.198523,-1.35272 -0.808413,-1.88615 2.565758,-0.98458 4.577813,-0.16384 3.886272,1.58525 -0.51695,1.30751 -1.001118,1.35484 -3.077859,0.3009 z"
     style="fill:#c8c8c8" />
  <path
     inkscape:connector-curvature="0"
     id="path9578"
     d="m 137.72329,253.116 c 0,-3.575 0.1815,-5.0375 0.40333,-3.25 0.22182,1.7875 0.22182,4.7125 0,6.5 -0.22183,1.7875 -0.40333,0.325 -0.40333,-3.25 z m 212.67048,-18.24169 c -2.90405,-4.3675 -3.09988,-5.22307 -0.56136,-2.45255 1.41395,1.54317 2.57081,3.23067 2.57081,3.75 0,1.40965 -0.36701,1.17269 -2.00945,-1.29745 z M 122.02475,231.4648 c -1.65287,-1.65286 -3.63759,-5.81489 -5.27067,-11.05276 -1.44071,-4.62087 -4.4258,-11.19033 -6.63353,-14.59881 -2.20774,-3.40847 -4.6386,-7.68429 -5.40192,-9.5018 -1.35888,-3.23558 -1.34321,-3.28067 0.7506,-2.1601 1.17615,0.62945 3.03585,0.90979 4.13267,0.62296 1.09683,-0.28682 2.62228,-0.28049 3.38991,0.0141 1.77284,0.6803 4.41141,9.45824 4.41141,14.6758 0,2.19184 0.3159,3.66926 0.70201,3.28316 1.374,-1.374 -0.66496,-14.1593 -3.39099,-21.26322 -0.45095,-1.17514 -0.27804,-1.46576 0.56285,-0.94607 0.66756,0.41258 1.86903,0.2063 2.66993,-0.45839 1.25578,-1.04221 1.4562,-0.0218 1.4562,7.41391 0,7.94549 0.94831,10.80549 2.36163,7.12244 0.73171,-1.90682 5.01962,-1.95048 6.58275,-0.067 0.9384,1.1307 0.66425,2.73278 -1.29969,7.59499 -2.27835,5.64063 -2.37548,6.48359 -1.14798,9.9627 1.31784,3.73517 0.97886,12.00933 -0.49202,12.00933 -0.40258,0 -1.925,-1.19304 -3.38316,-2.6512 z m 174.00062,1.84885 c -0.31908,-0.51629 0.10218,-3.55835 0.93614,-6.76014 2.45625,-9.43019 -0.32499,-14.4481 -11.29055,-20.37044 -5.52217,-2.98244 -5.65717,-3.47692 -2.1669,-7.93666 l 2.60083,-3.32325 3.99385,2.0375 c 7.30855,3.72855 17.55707,19.23355 16.6272,25.15534 -0.21591,1.375 -0.48935,3.4 -0.60764,4.5 -0.20072,1.86643 -4.39188,6.49605 -5.88329,6.49878 -0.36752,6.7e-4 -1.3345,0.2569 -2.14885,0.56939 -0.81435,0.3125 -1.74171,0.14576 -2.06079,-0.37052 z m -161.67048,-0.84814 c -2.93739,-0.79392 -0.86277,-12.07195 3.52975,-19.18841 2.40054,-3.88918 3.57442,-6.83958 3.23606,-8.13346 -0.80276,-3.06975 0.94352,-1.46223 3.90953,3.59887 3.16726,5.40453 4.82397,18.86751 2.19776,17.85974 -0.8388,-0.32188 -2.97652,0.93028 -5.08629,2.97926 -3.52116,3.41971 -4.48459,3.77653 -7.78681,2.884 z m 43.56419,-22.29953 c -0.3404,-1.07251 0.0731,-3.28824 0.9189,-4.92383 1.17429,-2.27082 1.4847,-5.76944 1.3131,-14.79998 -0.18435,-9.70149 0.0922,-12.41006 1.53939,-15.07617 0.97026,-1.7875 1.93724,-3.25 2.14884,-3.25 0.21161,0 1.32505,4.08399 2.47432,9.07553 2.2848,9.92336 2.68745,19.21633 1.02298,23.60937 -2.35775,6.22279 -8.10595,9.49749 -9.41753,5.36508 z M 340.46709,202.366 c -0.64859,-4.2625 -1.56781,-15.44515 -2.04271,-24.85033 -0.9068,-17.95852 -1.94816,-23.84801 -5.13808,-29.05887 -2.79203,-4.56089 -0.68059,-13.22986 3.2456,-13.32549 2.67501,-0.0651 5.76893,17.98548 6.39763,37.32526 0.28893,8.88769 0.7343,18.77076 0.98971,21.96239 0.25589,3.19765 0.0709,5.55976 -0.41213,5.26125 -1.27663,-0.78901 -2.0416,3.04477 -1.3984,7.00835 0.30591,1.88509 0.32702,3.42744 0.0469,3.42744 -0.2801,0 -1.03994,-3.4875 -1.68853,-7.75 z M 123.161,191.04529 c -1.97331,-8.40828 -1.6983,-9.52078 1.18459,-4.79207 2.09956,3.44383 2.3607,5.57169 1.19413,9.73034 -0.52198,1.86078 -1.03115,0.80374 -2.37872,-4.93827 z M 96.786298,172.77422 c -1.585695,-1.87492 -5.130009,-6.27754 -7.876255,-9.78359 -2.746246,-3.50604 -7.123249,-8.65701 -9.726674,-11.44659 l -4.733498,-5.07196 -8.773327,0.32703 c -8.441653,0.31466 -8.622108,0.27666 -4.773327,-1.00518 2.2,-0.73272 4.9,-1.8598 6,-2.50464 1.1,-0.64483 3.2375,-1.61148 4.75,-2.14811 1.699411,-0.60294 2.75,-1.70526 2.75,-2.88542 0,-1.05036 1.138377,-2.65563 2.529727,-3.56728 2.51276,-1.64642 2.525265,-1.63977 1.86457,0.99265 -0.617361,2.45976 -0.511711,2.56808 1.470273,1.50735 2.782351,-1.48907 2.693659,-0.70074 -0.542414,4.8212 l -2.677844,4.5694 2.677844,-1.7546 c 2.904606,-1.90317 3.239499,-1.62646 1.64266,1.35726 -1.447317,2.70434 -0.06989,2.40911 3.149205,-0.67498 3.310627,-3.17178 4.68304,-2.51206 5.508127,2.64775 0.345087,2.15805 1.246276,4.43733 2.002641,5.06506 0.756366,0.62772 1.377721,2.54872 1.380788,4.26887 0.0086,4.83077 1.942856,10.6934 4.736422,14.35595 3.404664,4.46375 2.280434,5.23299 -1.358918,0.92983 z m 227.643982,-39.5929 c -0.68319,-1.64935 -2.20626,-3.28376 -3.38461,-3.63204 -1.17835,-0.34827 -4.80183,-1.93823 -8.05217,-3.53325 -3.25035,-1.59502 -6.64416,-2.90003 -7.54179,-2.90003 -3.21768,0 -13.34287,-12.19602 -14.25167,-17.16645 -0.58647,-3.20758 0.72346,-2.8774 10.6844,2.69307 3.41604,1.91036 7.09856,3.47338 8.18338,3.47338 1.08482,0 4.34661,0.70507 7.24842,1.56681 4.94408,1.46823 5.17571,1.67767 3.6815,3.32874 -2.28382,2.5236 -1.97381,5.09912 0.98561,8.18809 1.41907,1.48119 2.96921,4.41818 3.44474,6.52664 1.07516,4.7671 0.63808,5.40444 -0.99781,1.45504 z M 40.81851,129.31164 C 39.766448,122.7324 37.18061,120.116 31.730294,120.116 h -4.527762 l 5.02739,-5.50077 c 2.765065,-3.02542 6.491876,-8.08792 8.281803,-11.25 1.789927,-3.16207 4.225836,-7.09923 5.41313,-8.74923 1.187294,-1.65 2.767605,-4.575 3.511802,-6.5 2.516114,-6.508389 5.421544,-9.999215 10.412904,-12.510934 7.725095,-3.88737 9.578399,-3.114625 5.23847,2.184209 -1.273352,1.554699 -3.335054,4.514225 -4.581559,6.576725 -2.426855,4.015536 -3.079305,4.37395 -4.810614,2.642641 -0.809813,-0.809813 -1.410405,-0.541113 -2.235184,1 -0.910223,1.700768 -0.843015,2.107359 0.348342,2.107359 0.811892,0 1.783755,0.497687 2.159695,1.105972 0.87783,1.420359 1.143788,10.833628 0.29118,10.305978 -0.35383,-0.21897 -0.926952,0.73192 -1.273604,2.1131 -0.659799,2.62884 -6.706243,9.17611 -12.492954,13.52774 -3.254377,2.4473 -3.331412,2.65392 -1.864232,5 1.998718,3.19604 2.874411,8.1669 1.75718,9.97461 -0.634689,1.02695 -1.079095,0.22425 -1.567771,-2.83176 z m 228.83471,-22.88497 c 0.9625,-0.25152 2.5375,-0.25152 3.5,0 0.9625,0.25153 0.175,0.45733 -1.75,0.45733 -1.925,0 -2.7125,-0.2058 -1.75,-0.45733 z"
     style="fill:#c1c1c1" />
  <path
     inkscape:connector-curvature="0"
     id="path9576"
     d="m 330.19217,308.47638 c -0.90179,-0.90179 -3.92321,-1.85904 -6.71428,-2.12723 -3.17388,-0.30497 -5.07467,-0.96235 -5.07467,-1.75507 0,-0.94661 0.94218,-1.05496 3.72193,-0.42803 2.04705,0.46169 3.78545,0.7518 3.86309,0.64469 0.0776,-0.10711 0.56351,-1.50194 1.07971,-3.09963 0.93344,-2.88914 0.94983,-2.87423 3.02164,2.75 1.14571,3.11019 2.00641,5.65489 1.91266,5.65489 -0.0937,0 -0.90829,-0.73783 -1.81008,-1.63962 z m -31.07365,-4.97841 c -0.39341,-0.39342 -0.7153,-1.79745 -0.7153,-3.12007 0,-1.32261 -0.72399,-3.12875 -1.60888,-4.01363 -1.26598,-1.26599 -1.47631,-2.79593 -0.98689,-7.17858 0.3421,-3.06333 0.86397,-11.41969 1.15973,-18.56969 0.74086,-17.91075 1.11128,-19.32647 3.45185,-13.19271 1.00892,2.64401 2.29559,5.36299 2.85927,6.04219 1.91126,2.30293 3.49077,19.21007 2.32832,24.92247 -1.28333,6.3064 -5.49147,16.10665 -6.4881,15.11002 z m -8.61934,-8.57007 c 2.02278,-3.96497 2.10728,-5.17702 1.58613,-22.75 -0.30276,-10.20904 -0.79727,-19.9119 -1.09891,-21.5619 -0.30164,-1.65 0.43513,-0.3 1.63725,3 3.53069,9.69222 3.29912,31.81994 -0.416,39.75 -1.48158,3.1625 -2.95282,5.75 -3.26943,5.75 -0.31661,0 0.38583,-1.88464 1.56096,-4.1881 z M 133.97446,269.93797 c -1.47705,-3.53802 -4.57124,-23.78316 -4.57124,-29.90936 0,-2.04025 -0.66559,-4.22011 -1.5,-4.91261 -1.42054,-1.17894 -2.17259,-7 -0.90437,-7 0.3276,0 1.81754,0.87008 3.31099,1.93351 5.20295,3.70482 7.60665,3.63547 11.69747,-0.33748 5.10189,-4.9549 6.30502,-4.92965 4.23443,0.0889 -0.63882,1.54831 -1.10646,3.09966 -1.03922,3.44745 0.0673,0.3478 -0.42258,0.60273 -1.08852,0.56651 -0.66593,-0.0362 -2.56078,0.47121 -4.21078,1.1276 l -3,1.19344 0.73577,14.74005 c 0.99047,19.84248 -0.37451,26.94274 -3.66453,19.06202 z m 234.14965,-13.91836 c -0.9785,-0.56956 -2.89081,-2.79663 -4.24958,-4.94905 -1.35876,-2.15242 -4.20963,-4.80074 -6.33527,-5.88516 -3.19438,-1.62965 -3.97072,-2.63065 -4.4754,-5.77053 -0.34438,-2.14251 -2.3302,-6.08465 -4.55451,-9.04133 -4.32573,-5.75 -4.67257,-6.85671 -6.00818,-19.17105 -0.86167,-7.9446 -0.0908,-14.68749 1.26752,-11.08649 0.31119,0.825 1.47759,3.99128 2.59201,7.03617 1.11441,3.04489 3.26738,7.36926 4.78436,9.6097 1.51699,2.24043 4.18206,6.18889 5.92237,8.77434 1.74032,2.58544 6.35282,7.75932 10.25,11.4975 3.89719,3.73819 7.08579,7.64042 7.08579,8.67163 0,1.33496 -0.74558,0.77771 -2.5889,-1.93498 -1.42389,-2.09544 -2.83088,-3.56792 -3.12663,-3.27216 -0.29576,0.29576 -1.49326,-0.87206 -2.66111,-2.59514 -1.16785,-1.72308 -2.79836,-3.32674 -3.62336,-3.56368 -0.825,-0.23694 -0.52194,0.29226 0.67347,1.17601 1.19541,0.88375 2.70276,3.21057 3.34967,5.17071 0.6469,1.96015 1.42848,3.31162 1.73683,3.00326 0.30835,-0.30835 1.17957,0.32301 1.93605,1.40303 0.75647,1.08002 2.93433,2.70343 4.83969,3.60758 1.90536,0.90415 3.46429,2.11238 3.46429,2.68496 0,0.57257 -0.90276,0.22406 -2.00613,-0.77448 -1.10337,-0.99854 -2.30749,-1.51416 -2.67581,-1.14584 -0.36833,0.36833 -1.62557,-0.22832 -2.79387,-1.32589 l -2.12419,-1.99557 v 3.42184 c 0,1.88201 0.2475,3.26908 0.55,3.08238 0.3025,-0.1867 0.6149,0.74237 0.69421,2.06459 0.0793,1.32222 0.0793,2.39036 0,2.37363 -0.0793,-0.0167 -0.94481,-0.49641 -1.92332,-1.06598 z m -2.23788,-8.65361 c -0.74585,-2.0625 -1.60436,-4.93228 -1.90781,-6.37729 -0.30344,-1.44502 -1.7945,-3.42718 -3.31345,-4.40481 -2.70117,-1.73851 -2.72614,-1.73572 -1.13818,0.1273 0.89297,1.04764 2.18062,3.7048 2.86145,5.9048 1.18974,3.84443 3.63122,8.5 4.45759,8.5 0.21807,0 -0.21374,-1.6875 -0.9596,-3.75 z m -64.88474,-1.54253 c -4.96025,-8.90171 -5.03867,-11.12827 -0.46301,-13.14704 2.12561,-0.93782 3.86474,-2.12257 3.86474,-2.63278 0,-0.51021 0.45,-0.92765 1,-0.92765 1.33982,0 1.18778,8.04974 -0.29668,15.70747 l -1.20332,6.20746 z m -12.96191,-2.34383 c -0.94714,-1.98619 -1.50416,-3.82918 -1.2378,-4.09553 0.26635,-0.26636 1.19155,1.20845 2.05599,3.27734 2.03996,4.88232 1.41695,5.50532 -0.81819,0.81819 z m -94.13636,-14.7974 c -2.75,-0.77603 -6.26679,-1.8959 -7.8151,-2.4886 -3.45884,-1.32407 -11.08495,-1.39689 -15.4415,-0.14745 -3.77829,1.0836 -3.70397,1.26135 -1.63482,-3.90995 1.47783,-3.69347 1.91353,-4.02024 5.36045,-4.02024 2.44051,0 5.11136,-0.93945 7.64142,-2.68782 12.74728,-8.80882 13.68065,-9.31218 17.26753,-9.31218 4.44866,0 6.56628,1.35893 15.62548,10.02728 6.47757,6.19809 7.679,6.90331 16,9.39165 4.9481,1.4797 9.44654,2.83663 9.99654,3.01541 0.55,0.17877 -3.05,0.26668 -8,0.19535 -4.95,-0.0713 -14.625,0.20268 -21.5,0.60891 -9.56696,0.56529 -13.67322,0.40752 -17.5,-0.67236 z m 7.26819,-98.99857 c -0.45233,-2.36621 -0.40394,-2.38659 1.78039,-0.75 2.31988,1.73817 2.32396,3.18233 0.009,3.18233 -0.72842,0 -1.53364,-1.09455 -1.78937,-2.43233 z m -43.26819,-8.83838 c -10.5463,-16.07325 -12.55676,-17.54298 -27.5602,-20.14759 l -7.4398,-1.29156 7.4106,-2.291253 c 6.89837,-2.132878 8.2808,-2.229656 20,-1.400121 6.92417,0.490123 18.69614,0.88922 26.15993,0.886882 l 13.57052,-0.0042 1.07579,4.528812 c 0.59168,2.49084 2.69744,7.29574 4.67947,10.67756 2.16398,3.69227 3.60369,7.46442 3.60369,9.44194 v 3.29317 l -1.86934,-3.6666 c -6.00686,-11.78211 -14.23927,-17.33399 -20.88661,-14.0858 -3.69259,1.80438 -3.74491,1.91198 -3.80638,7.82952 -0.0935,9.00357 -0.20518,9.42136 -3.36075,12.57692 -4.19528,4.19529 -4.92003,3.79791 -11.57692,-6.34763 z m 105.5,-16.22929 c -3.43076,-1.32118 -3.34667,-1.34935 4.25,-1.42392 6.25603,-0.0614 7.75,0.21307 7.75,1.42392 0,1.92296 -7.00657,1.92296 -12,0 z M 66.992496,73.260457 c -0.290815,-0.470549 0.582628,-0.643089 1.940983,-0.383423 1.358356,0.259666 2.469738,0.644661 2.469738,0.855543 0,0.77375 -3.898641,0.356443 -4.410721,-0.47212 z"
     style="fill:#b8b8b8" />
  <path
     inkscape:connector-curvature="0"
     id="path9574"
     d="m 293.7919,300.74436 -4.11132,-1.99252 2.61043,-5.56792 c 4.19755,-8.95317 3.89488,-29.8514 -0.61989,-42.80207 l -3.21915,-9.23415 2.1054,-3.56839 c 2.65134,-4.4937 5.95821,-4.47609 6.89366,0.0367 0.34202,1.65 2.04619,5.51139 3.78703,8.58086 2.63809,4.65152 3.16516,6.64146 3.16516,11.95 0,7.26903 -0.99397,7.11418 -3.9427,-0.61427 -2.38495,-6.25079 -2.75018,-4.88291 -3.49334,13.08341 -0.29576,7.15 -0.81763,15.50636 -1.15973,18.56969 -0.49764,4.45624 -0.28698,5.9047 1.05376,7.24544 0.92165,0.92166 1.53315,2.71749 1.35887,3.99074 l -0.31686,2.315 -4.11132,-1.99251 z m 76.18432,-52.14983 c -1.05985,-0.80183 -1.69459,-1.69027 -1.41054,-1.97433 0.28406,-0.28405 1.33345,0.3863 2.33199,1.48967 2.12638,2.34962 1.78263,2.53042 -0.92145,0.48466 z m -8.32965,-8.70858 c 0.22551,-0.67653 -0.52449,-2.05324 -1.66667,-3.05935 -2.03596,-1.79343 -2.02394,-1.79724 0.61297,-0.19448 1.61202,0.97981 2.47064,2.20557 2.14302,3.05935 -0.66747,1.7394 -1.66357,1.91724 -1.08932,0.19448 z m 2.62182,-2.8089 c -1.44915,-1.62858 -2.3064,-2.96105 -1.90498,-2.96105 0.77158,0 3.25151,2.64906 4.44672,4.75 1.13107,1.98818 0.29671,1.40093 -2.54174,-1.78895 z m -79.98401,-2.74247 c -0.32944,-1.98722 -0.18269,-2.92011 0.37209,-2.36533 0.50384,0.50384 0.74864,1.98048 0.544,3.28141 -0.31488,2.00169 -0.45573,1.86084 -0.91609,-0.91608 z m -254.131163,-91.518 c -4.396919,-1.73744 -3.218939,-2.49937 3.533401,-2.28543 7.096692,0.22485 10.332506,1.44088 7.150223,2.68707 -2.706685,1.05994 -7.434619,0.8822 -10.683624,-0.40164 z m 0.25,-9.70058 c 0,-0.55 1.035,-1 2.3,-1 1.265,0 2.84,-0.54 3.5,-1.2 1.483206,-1.48321 1.580625,-4.8 0.140983,-4.8 -0.582459,0 -0.73877,-0.51817 -0.347357,-1.15149 0.493108,-0.79787 1.125437,-0.58562 2.059017,0.69113 1.785269,2.4415 1.7033,4.96156 -0.224072,6.88893 -1.727554,1.72756 -7.428571,2.1661 -7.428571,0.57143 z m 171.139223,-5.03327 c -1.29844,-1.0817 -1.93068,-1.96673 -1.40499,-1.96673 0.52569,0 1.77028,0.9 2.76577,2 2.28688,2.52697 1.69506,2.5125 -1.36078,-0.0333 z M 23.978465,125.23775 c -0.298532,-0.48303 0.68741,-1.12652 2.190983,-1.42997 1.503573,-0.30344 3.633769,-0.85012 4.733769,-1.21484 1.642617,-0.54462 1.553271,-0.29307 -0.5,1.40774 -2.620968,2.17105 -5.504391,2.72625 -6.424752,1.23707 z M 188.32753,109.366 l -2.42431,-2.75 2.75,2.42431 c 1.5125,1.33338 2.75,2.57088 2.75,2.75 0,0.78428 -0.8098,0.14598 -3.07569,-2.42431 z M 79.672249,75.423009 c 0.972967,-0.253543 2.322967,-0.236869 3,0.03705 0.677032,0.273927 -0.119032,0.481372 -1.769032,0.460992 -1.65,-0.02038 -2.203936,-0.244498 -1.230968,-0.498042 z m -12.269032,-3.17215 c 0,-1.192835 3.966094,-6.134859 4.923372,-6.134859 0.428017,0 0.285245,1.575 -0.31727,3.5 -0.980517,3.132691 -4.606102,5.206659 -4.606102,2.634859 z"
     style="fill:#a7a7a7" />
  <path
     inkscape:connector-curvature="0"
     id="path9572"
     d="m 372.03958,254.47964 c -1.45,-1.45 -2.63636,-3.45983 -2.63636,-4.46628 0,-1.72811 0.19489,-1.71492 3.50319,0.23703 3.5872,2.11649 5.28664,3.86561 3.75583,3.86561 -0.47246,0 -1.39152,-0.5325 -2.04235,-1.18333 -1.98989,-1.98989 -2.66139,0.0344 -0.72222,2.1772 2.65807,2.93713 1.22228,2.45013 -1.85809,-0.63023 z M 362.58319,241.866 c -0.94892,-3.79276 -0.90821,-4.04116 0.37836,-2.30887 1.27453,1.71609 2.05963,6.55887 1.06331,6.55887 -0.2081,0 -0.85685,-1.9125 -1.44167,-4.25 z m -83.5133,-1.41667 c -0.36667,-0.36666 -0.66944,-1.60416 -0.67283,-2.75 -0.003,-1.14583 -0.68316,-3.38147 -1.51061,-4.96808 -2.44849,-4.69495 1.54742,-7.50698 6.02009,-4.23648 1.78976,1.3087 1.79947,1.51017 0.19113,3.96481 -0.93195,1.42233 -1.69445,3.95189 -1.69445,5.62124 0,2.89817 -0.89509,3.80676 -2.33333,2.36851 z m 8.73521,-4.44509 c 0.42707,-2.67075 0.22898,-4.6281 -0.56522,-5.58505 -1.03682,-1.24929 -0.77526,-1.42235 1.72031,-1.13824 3.58414,0.40804 4.30991,3.258 1.97803,7.76737 -2.31649,4.47959 -3.93039,3.94177 -3.13312,-1.04408 z M 270.59817,235.616 c 0.0204,-1.65 0.2445,-2.20394 0.49804,-1.23097 0.25354,0.97297 0.23687,2.32297 -0.0371,3 -0.27393,0.67703 -0.48137,-0.11903 -0.46099,-1.76903 z m -90.96295,-41.5 c 0,-1.925 0.2058,-2.7125 0.45733,-1.75 0.25152,0.9625 0.25152,2.5375 0,3.5 -0.25153,0.9625 -0.45733,0.175 -0.45733,-1.75 z m 19.96295,-72.5 c 0.0204,-1.65 0.2445,-2.20394 0.49804,-1.23097 0.25354,0.97297 0.23687,2.32297 -0.0371,3 -0.27393,0.67703 -0.48137,-0.11903 -0.46099,-1.76903 z"
     style="fill:#8f8f8f" />
  <path
     inkscape:connector-curvature="0"
     id="path9570"
     d="m 248.59817,205.616 c 0.0204,-1.65 0.2445,-2.20394 0.49804,-1.23097 0.25354,0.97297 0.23687,2.32297 -0.0371,3 -0.27393,0.67703 -0.48137,-0.11903 -0.46099,-1.76903 z m -90.90894,-3 c 0.008,-2.75 0.20172,-3.75631 0.43157,-2.23625 0.22986,1.52006 0.22371,3.77006 -0.0136,5 -0.23736,1.22994 -0.42542,-0.0137 -0.41792,-2.76375 z m 21.90894,-3 c 0.0204,-1.65 0.2445,-2.20394 0.49804,-1.23097 0.25354,0.97297 0.23687,2.32297 -0.0371,3 -0.27393,0.67703 -0.48137,-0.11903 -0.46099,-1.76903 z M 30.653217,139.45372 c -1.656263,-0.66832 -1.600715,-2.00439 0.08333,-2.00439 0.733334,0 1.333334,0.6 1.333334,1.33334 0,0.73333 -0.0375,1.2978 -0.08333,1.25438 -0.04583,-0.0434 -0.645834,-0.30592 -1.333334,-0.58333 z"
     style="fill:#7a7a7a" />
  <path
     inkscape:connector-curvature="0"
     id="path9568"
     d="m 135.65322,333.42667 c 0.9625,-0.25152 2.5375,-0.25152 3.5,0 0.9625,0.25153 0.175,0.45733 -1.75,0.45733 -1.925,0 -2.7125,-0.2058 -1.75,-0.45733 z m 184,-15 c 0.9625,-0.25152 2.5375,-0.25152 3.5,0 0.9625,0.25153 0.175,0.45733 -1.75,0.45733 -1.925,0 -2.7125,-0.2058 -1.75,-0.45733 z m -2.37092,-11.58975 c 0.4825,-0.4825 2.1696,-0.71609 3.7491,-0.5191 2.64362,0.32972 2.5739,0.39943 -0.87727,0.87727 -2.14974,0.29765 -3.37485,0.14485 -2.87183,-0.35817 z M 144.68923,245.616 c 0.008,-2.75 0.20172,-3.75631 0.43157,-2.23625 0.22986,1.52006 0.22371,3.77006 -0.0136,5 -0.23736,1.22994 -0.42542,-0.0137 -0.41792,-2.76375 z m 123.32098,-9.08179 c -1.16934,-3.04724 -0.64764,-5.41821 1.19221,-5.41821 1.46739,0 1.72384,0.64547 1.39059,3.5 -0.43237,3.70356 -1.57271,4.55048 -2.5828,1.91821 z m 17.39301,-0.85919 c 0,-1.40746 0.45,-2.55902 1,-2.55902 0.55,0 1,0.87344 1,1.94098 0,1.06754 -0.45,2.2191 -1,2.55902 -0.56716,0.35052 -1,-0.48962 -1,-1.94098 z M 306.59817,148.616 c 0.0204,-1.65 0.2445,-2.20394 0.49804,-1.23097 0.25354,0.97297 0.23687,2.32297 -0.0371,3 -0.27393,0.67703 -0.48137,-0.11903 -0.46099,-1.76903 z m -274.694953,-9.5 c -0.782182,-1.2656 0.541628,-1.2656 2.5,0 1.292687,0.8354 1.266292,0.97149 -0.190983,0.98469 -0.930041,0.008 -1.969098,-0.43469 -2.309017,-0.98469 z m 239.694953,-5.5 c 0.0204,-1.65 0.2445,-2.20394 0.49804,-1.23097 0.25354,0.97297 0.23687,2.32297 -0.0371,3 -0.27393,0.67703 -0.48137,-0.11903 -0.46099,-1.76903 z"
     style="fill:#5e5e5e" />
  <path
     inkscape:connector-curvature="0"
     id="path9566"
     d="m 136.84068,326.42285 c 3.05156,-4.49078 2.535,-5.40194 -1.40927,-2.48582 -3.98068,2.94305 -4.56458,2.74099 -2.09628,-0.7254 2.7282,-3.83141 2.61798,-4.62522 -0.84118,-6.05805 -2.12592,-0.88058 -3.45452,-0.91325 -4.93426,-0.12132 -2.68971,1.43949 -2.84015,1.40136 -3.43424,-0.87044 -0.82804,-3.16643 3.53632,-5.38409 8.98722,-4.56668 4.43692,0.66536 4.4781,0.70757 3.86713,3.96433 -0.60999,3.25157 -0.56534,3.29795 3.65294,3.79459 2.34876,0.27654 5.84548,1.17892 7.77048,2.0053 l 3.5,1.50252 -3,0.77749 c -1.65,0.42762 -4.47816,2.0598 -6.2848,3.62706 -1.80663,1.56726 -4.41036,2.84957 -5.78605,2.84957 h -2.50125 z m 177.19308,-9.82726 c -1.26735,-3.30266 2.57998,-8.89869 6.56302,-9.54607 6.37663,-1.03643 9.4612,0.99792 8.99088,5.92969 -0.21698,2.27523 -0.68474,4.17875 -1.03948,4.23003 -6.04623,0.87409 -9.23716,0.58942 -8.71272,-0.77727 2.31622,-6.03596 0.99072,-9.1655 -1.41851,-3.34913 -1.6659,4.02184 -3.59467,5.56759 -4.38319,3.51275 z m -157.4873,-0.38664 c -1.00598,-0.62501 -1.05341,-1.03043 -0.18347,-1.56809 1.3722,-0.84806 2.40235,-0.0973 1.8944,1.38059 -0.20803,0.60526 -0.91401,0.68263 -1.71093,0.1875 z m 129.35676,-7.10431 c -2.96284,-0.56452 -2.97241,-0.58685 -0.77292,-1.80304 1.2249,-0.67729 2.76107,-2.23362 3.41372,-3.45852 1.30624,-2.45154 0.32165,-1.91811 -4.8908,2.64978 -3.52322,3.08754 -2.63396,0.38762 1.04761,-3.18069 3.77765,-3.66145 5.78883,-3.88623 10.70239,-1.19617 2.64434,1.44772 3.01105,1.92755 1.5,1.96271 -1.1,0.0256 -3.35,1.29552 -5,2.82204 -2.36597,2.1889 -3.63403,2.65468 -6,2.20389 z M 23.786294,137.64799 c -0.827516,-1.75349 -0.683812,-2.15906 0.804758,-2.27119 0.996691,-0.0751 1.812165,0.24873 1.812165,0.71956 0,0.47084 0.244365,1.49287 0.543033,2.27119 0.879174,2.29109 -2.054408,1.62308 -3.159956,-0.71956 z m 4.616923,-1.53199 c 0,-0.55 0.423442,-1 0.940983,-1 0.517541,0 1.219098,0.45 1.559017,1 0.339919,0.55 -0.08352,1 -0.940983,1 -0.857459,0 -1.559017,-0.45 -1.559017,-1 z m -3.8,-3.2 c -1.983566,-1.98357 -1.354369,-2.95597 1.05,-1.62273 1.2375,0.6862 2.620948,1.14088 3.07433,1.01041 0.453381,-0.13048 0.539323,0.22392 0.190983,0.78754 -0.850423,1.37602 -2.84507,1.29502 -4.315313,-0.17522 z M 76.842603,96.322195 c 0.403036,-0.711593 0.156199,-2.061593 -0.548528,-3 -1.153624,-1.536154 -1.091729,-1.5325 0.621053,0.03666 1.589266,1.456003 1.679547,1.949768 0.548527,3 -1.090245,1.01237 -1.211168,1.005232 -0.621052,-0.03666 z"
     style="fill:#393939" />
  <path
     inkscape:connector-curvature="0"
     id="path9564"
     d="m 129.96774,331.78683 c -1.9108,-1.3972 -0.77197,-5.67083 1.51116,-5.67083 0.55292,0 2.33155,-0.98053 3.95251,-2.17897 3.94427,-2.91612 4.46083,-2.00496 1.40927,2.48582 l -2.50956,3.69315 h 2.50125 c 1.37569,0 3.97942,-1.28231 5.78605,-2.84957 6.01929,-5.22174 11.809,-4.88869 8.29321,0.47707 -3.15811,4.8199 -16.38874,7.37414 -20.94389,4.04333 z m -10.18256,-10.11784 c -0.3054,-0.79586 0.27122,-2.57673 1.28139,-3.9575 2.38184,-3.2557 4.26857,-4.05116 3.60683,-1.52067 -0.57529,2.19993 0.0224,2.37417 2.88629,0.84144 4.10356,-2.19616 9.6478,1.87947 6.64353,4.88374 -1.79003,1.79003 -13.71475,1.58573 -14.41804,-0.24701 z M 317.61761,314.366 c 2.7227,-4.75565 2.67244,-4.6965 3.38527,-3.98367 1.29028,1.29027 -1.74534,7.73367 -3.64349,7.73367 -1.80572,0 -1.79437,-0.16479 0.25822,-3.75 z m 11.78561,-0.71089 c 0,-2.51751 0.40082,-3.57378 1.25,-3.29412 1.873,0.61684 2.06265,4.25065 0.29826,5.71496 -1.35031,1.12065 -1.54826,0.81114 -1.54826,-2.42084 z m -40,-4.08708 c 0,-1.36036 5.72045,-5.39201 7.69098,-5.42043 3.96926,-0.0573 3.52388,1.96953 -0.87109,3.96404 -4.31213,1.95692 -6.81989,2.49245 -6.81989,1.45639 z m -6.52878,-2.40547 c 0.3241,-0.52439 1.97773,-1.94212 3.67475,-3.1505 l 3.08549,-2.19706 -1.13865,2.12758 c -0.62626,1.17017 -1.99875,2.5879 -3.04999,3.1505 -2.39185,1.28008 -3.33555,1.30558 -2.5716,0.0695 z M 31.432177,131.15506 c -0.809071,-0.51167 -1.168,-1.23335 -0.797619,-1.60373 0.370382,-0.37039 1.401992,0.0551 2.292469,0.94562 1.759513,1.75952 0.86761,2.15218 -1.49485,0.65811 z"
     style="fill:#2a2a2a" />
  <path
     inkscape:connector-curvature="0"
     id="path9562"
     d="m 154.50105,262.96678 c -1.56616,-4.49268 -1.35618,-12.4505 0.4191,-15.88351 1.85871,-3.59435 8.00147,-7.28527 7.13929,-4.28968 -0.28849,1.00232 -1.24555,5.64741 -2.12679,10.32241 -2.35906,12.51486 -2.48783,13 -3.45066,13 -0.48571,0 -1.37714,-1.41715 -1.98094,-3.14922 z m -9.40407,-19.38618 c 0.29781,-11.52069 1.24192,-14.01859 3.81453,-10.09229 2.15004,3.28138 1.53333,9.66561 -1.50992,15.63089 -1.12146,2.19824 -2.15424,3.9968 -2.29506,3.9968 -0.14082,0 -0.14512,-4.29093 -0.01,-9.5354 z m 20.96606,-26.44517 c -0.7007,-6.70395 -0.19829,-8.52987 4.28837,-15.58526 1.72575,-2.7138 3.07072,-6.05917 2.98881,-7.43417 -0.28826,-4.83908 0.0722,-6 1.863,-6 0.99,0 2.34,0.54 3,1.2 1.60523,1.60523 1.47634,12.67378 -0.18242,15.66548 l -1.31155,2.36548 -1.50078,-3.76272 -1.50077,-3.76272 -0.54121,5.96859 c -0.44899,4.9515 -4.81088,17.32589 -6.10726,17.32589 -0.2041,0 -0.65239,-2.69126 -0.99619,-5.98057 z m -15.17103,-9.62603 c -5.82369,-6.28386 -4.99765,-13.11277 2.9191,-24.13231 3.89853,-5.42646 5.50243,-10.58045 3.64905,-11.7259 -1.83095,-1.13159 -3.96643,1.36196 -5.41194,6.31936 -1.31317,4.50353 -1.42572,4.59824 -5.49229,4.6216 -2.65207,0.0152 -4.15184,-0.42459 -4.15218,-1.21768 -2.9e-4,-0.68284 -0.90053,-1.80358 -2.00053,-2.49054 -1.1,-0.68696 -2,-2.04078 -2,-3.00848 0,-1.09278 0.75781,-1.75945 2,-1.75945 2.54506,0 2.58095,-1.61872 0.0657,-2.96482 -2.52405,-1.35083 -8.7638,-1.33275 -9.60468,0.0278 -0.36134,0.58466 0.0621,1.85759 0.94098,2.82874 0.87888,0.97115 1.59796,2.24878 1.59796,2.83917 0,0.59038 1.289,1.52278 2.86445,2.07198 1.92087,0.66962 3.0303,1.86617 3.36794,3.63244 0.27692,1.44863 0.26194,2.39233 -0.0333,2.09709 -0.29524,-0.29524 -1.36519,0.21289 -2.37766,1.12917 -2.60561,2.35804 -5.6507,0.50259 -9.53125,-5.80764 l -3.07795,-5.00509 -3.66684,7.62368 c -3.03178,6.30334 -3.99307,7.52014 -5.55049,7.02584 -1.31969,-0.41886 -2.38381,0.16551 -3.55428,1.95188 -4.24798,6.48333 -10.44058,-1.50186 -10.44058,-13.46288 0,-1.87053 -1.26309,-4.96284 -3.143444,-7.69584 -4.254379,-6.18353 -4.744798,-13.71062 -1.948272,-29.90261 2.653595,-15.36441 2.827281,-25.67821 0.424579,-25.21223 -0.93882,0.18207 -2.285823,2.18 -3.083333,4.57332 -1.673384,5.02181 -2.574171,5.29468 -4.2358,1.28316 -2.758844,-6.66044 -6.976845,-5.87658 -10.507343,1.95267 -1.680306,3.72625 -2.035771,4.01068 -3.134487,2.5081 -1.132978,-1.54944 -1.587499,-1.41492 -5.300138,1.56864 -5.186582,4.16805 -7.688461,3.26371 -11.746535,-4.24598 -2.587397,-4.78812 -3.188612,-5.30248 -6.048382,-5.17466 -2.978255,0.13312 -3.157931,-0.0531 -2.893921,-3 0.177147,-1.9773 1.593393,-4.50783 3.820737,-6.82684 2.31824,-2.41364 4.808339,-6.96024 7.21786,-13.178867 6.630392,-17.112091 17.168738,-22.477361 30.645333,-15.602115 3.627111,1.850414 3.80741,2.147739 2.732722,4.506424 -1.238427,2.718049 -0.384759,3.738861 6.332914,7.572864 2.79884,1.597395 2.80725,1.631166 0.84719,3.404988 -2.550249,2.307946 -2.519516,5.641146 0.0795,8.620836 l 2.05917,2.36078 -0.38226,-3.22465 c -0.35628,-3.00557 -0.21199,-3.181916 2.12387,-2.595653 1.37836,0.345943 4.06155,1.684543 5.96263,2.974653 1.90108,1.29011 3.84372,2.34565 4.31697,2.34565 0.47325,0 0.86045,1.215 0.86045,2.7 0,2.1 0.26667,2.43333 1.2,1.5 1.90079,-1.90079 4.31453,-1.41274 7.17879,1.45152 3.00858,3.00858 2.83742,4.06975 -0.37879,2.34848 -2.86881,-1.53534 -3.37786,-0.82768 -2.55599,3.55325 0.55739,2.97116 1.04264,3.55275 2.62004,3.14025 2.96139,-0.77442 2.41607,2.30942 -1.02677,5.8065 -4.39597,4.46524 -5.3664,5.09185 -7.28728,4.70541 -1.38118,-0.27786 -1.75,0.33594 -1.75,2.9124 0,3.06314 -0.0875,3.14485 -1.41824,1.32489 -2.23476,-3.05621 -2.72044,-1.21781 -1.09437,4.14242 1.79934,5.93142 1.78226,5.69957 0.35478,4.81733 -0.85124,-0.52609 -0.98594,0.71611 -0.5087,4.69099 0.35703,2.97361 0.65306,8.02062 0.65784,11.21558 0.0109,7.28021 1.93591,6.73531 2.1834,-0.61804 l 0.1747,-5.19098 0.40796,4.5 0.40796,4.5 1.26745,-3 c 1.24939,-2.95726 1.27831,-2.90916 2.03019,3.37641 0.50037,4.18298 1.05762,5.90294 1.61996,5 0.6147,-0.98701 1.05091,-0.4149 1.54187,2.02223 1.34533,6.67825 3.35748,0.80099 3.53994,-10.33977 l 0.16475,-10.05887 0.61364,11.69505 c 0.63012,12.0094 1.4354,15.12926 2.65294,10.27821 0.93909,-3.74164 3.86039,-6.6168 5.2803,-5.19689 0.7685,0.7685 1.58369,0.6342 2.85,-0.46951 0.9755,-0.85024 2.31118,-1.35042 2.96819,-1.11152 3.70109,1.34579 5.30544,-1.57885 5.30544,-9.67151 0,-8.59366 1.4157,-11.44177 2.49928,-5.02808 0.63082,3.73379 2.50072,5.69788 2.50072,2.62669 0,-0.75765 0.6559,-1.9219 1.45756,-2.58721 1.00133,-0.83103 1.26154,-2.19964 0.83134,-4.37245 -0.56079,-2.83239 -0.45648,-3.02321 0.99864,-1.82669 3.25576,2.67716 4.13541,0.18059 1.96824,-5.58609 -0.25837,-0.6875 0.18364,-1.25 0.98224,-1.25 4.10601,0 5.73739,-5.21308 3.17938,-10.15972 -0.87042,-1.68323 -1.09222,-2.75734 -0.49289,-2.38693 3.10707,1.92027 4.33621,6.79136 3.05809,12.11919 -1.66436,6.93781 -0.76426,9.83295 4.5649,14.68292 5.44482,4.95522 6.92017,9.55314 5.95558,18.56042 -0.50187,4.68639 -0.98264,6.10456 -1.79432,5.29288 -3.96572,-3.96572 -7.36098,1.61775 -5.64539,9.28378 2.0305,9.07323 -1.80571,17.96059 -6.08213,14.09048 -1.95265,-1.76713 -1.98123,-1.71192 -1.98123,3.82681 0,7.32643 -2.57176,9.33431 -6.51121,5.08357 z M 82.216575,107.35781 c 0.172348,-1.783 0.721981,-3.24181 1.221409,-3.24181 0.499427,0 1.298209,-1.4625 1.775072,-3.25 0.760178,-2.849499 1.242713,-3.22061 3.915695,-3.011505 3.828525,0.299503 5.178794,-1.331477 4.543863,-5.488495 -0.54005,-3.535811 -1.50585,-3.894091 -5.463025,-2.026603 -2.650078,1.250636 -9.817764,15.206013 -9.810005,19.099923 0.0067,3.3753 3.472201,1.48548 3.816991,-2.08151 z M 76.924341,96.724213 c 1.6431,-1.201465 1.715128,-1.61862 0.526725,-3.050559 -2.12077,-2.555371 -6.479918,-1.636338 -6.841319,1.442346 -0.200092,1.704539 -0.01184,2.085474 0.591641,1.197214 0.486811,-0.716533 1.518872,-1.166533 2.29347,-1 0.774597,0.166532 1.281796,-0.301901 1.127109,-1.040964 -0.154687,-0.739063 0.267188,-1.160938 0.9375,-0.9375 2.347995,0.782665 1.918272,2.590541 -0.85625,3.602303 -1.54,0.561579 -2.098508,1.056579 -1.24113,1.1 0.857379,0.04342 2.415393,-0.547357 3.462254,-1.31284 z m 6.478876,-4.551509 c 0,-1.068813 0.92028,-2.587886 2.045068,-3.375717 1.644957,-1.152174 1.758665,-1.542324 0.581191,-1.994163 -0.881467,-0.338251 -1.350888,-1.591048 -1.179881,-3.148883 0.225609,-2.055251 -0.07044,-2.474646 -1.440008,-2.039963 -0.948202,0.300948 -2.292637,-0.137982 -2.987632,-0.9754 -3.253782,-3.920568 -3.510649,-1.132733 -0.8502,9.227422 1.104348,4.300485 3.831462,5.942324 3.831462,2.306704 z M 242.3587,203.96999 c -3.00051,-3.10531 -6.58048,-5.96298 -7.95548,-6.35038 -1.375,-0.3874 -3.93956,-2.2342 -5.69902,-4.10399 -2.17451,-2.31087 -4.10485,-3.39962 -6.02749,-3.39962 -4.52132,0 -7.08891,-2.5464 -8.86983,-8.79663 -1.90504,-6.6859 -2.96199,-8.17031 -3.84239,-5.39641 -1.12363,3.54023 -3.52462,3.42969 -7.28994,-0.33563 -3.4008,-3.4008 -3.51431,-3.74684 -2.91152,-8.87568 0.57842,-4.92142 0.38645,-5.63894 -2.46573,-9.21629 -1.70114,-2.13365 -3.96342,-5.57871 -5.02728,-7.65568 -1.06387,-2.07698 -4.40496,-6.68872 -7.42466,-10.24831 -7.06528,-8.3285 -9.41607,-13.80432 -5.48489,-12.7763 1.15606,0.30232 2.4351,2.00371 3.12461,4.15638 1.13241,3.53543 8.76916,12.14455 10.77287,12.14455 0.5455,0 2.31077,-1.10983 3.92282,-2.46628 l 2.93101,-2.46628 2.40026,3.71628 c 2.84065,4.39812 6.22634,5.32706 7.91506,2.17167 2.00184,-3.74048 0.25166,-8.78153 -4.97857,-14.33983 -3.86787,-4.11049 -4.88995,-5.94286 -5.20215,-9.32632 l -0.38853,-4.21076 2.25738,2.12069 c 1.24155,1.16638 2.55343,3.73622 2.91527,5.71076 0.36185,1.97454 1.94374,5.06823 3.51531,6.87487 1.57158,1.80663 2.85741,3.69156 2.85741,4.18872 0,1.75549 8.93815,2.38857 10.78929,0.7642 0.94089,-0.82564 2.68164,-1.79652 3.86833,-2.15751 1.18669,-0.36099 2.38251,-1.24239 2.65737,-1.95868 0.31701,-0.82611 1.61821,-1.13818 3.55842,-0.85342 2.42092,0.35532 4.53311,2.29537 10.13011,9.30455 3.88929,4.8706 7.50457,9.12332 8.03396,9.4505 2.46874,1.52577 0.47203,-3.12059 -4.39504,-10.22731 -5.5478,-8.10069 -7.52001,-12.29585 -5.78048,-12.29585 1.28458,0 11.62162,10.24134 16.08304,15.93416 3.66108,4.67158 5.48372,4.02576 2.3915,-0.84738 -5.44045,-8.57382 -13.46272,-16.98091 -18.28202,-19.15895 -4.68764,-2.11855 -4.88883,-2.35556 -3.07692,-3.62466 2.4821,-1.73854 1.64006,-3.93243 -2.28918,-5.96432 -5.49228,-2.84017 -1.18977,-4.51073 10.81162,-4.19789 6.78818,0.17695 11.67375,-0.23532 15.21121,-1.2836 4.98005,-1.47576 5.37889,-1.4502 8.99151,0.57625 4.66054,2.61425 5.35919,5.12543 1.86848,6.7159 -1.88287,0.8579 -2.5712,1.93167 -2.5712,4.01101 0,1.56171 -0.3375,2.78619 -0.75,2.72106 -6.43326,-1.01578 -7.49847,4.73295 -1.25,6.74601 3.48742,1.12354 3.50106,1.15139 3.79569,7.75 0.31974,7.16108 0.70219,7.58287 4.31945,4.76381 3.82674,-2.98231 8.58686,-5.1414 11.3352,-5.1414 3.68382,0 3.36794,3.84458 -0.95034,11.56638 -2.66275,4.76145 -3.5,7.42237 -3.5,11.1236 0,5.12765 -2.06047,9.31002 -4.58664,9.31002 -1.14116,0 -0.98669,0.65808 0.6853,2.91957 2.76019,3.73336 1.95024,7.48666 -2.06349,9.56224 -4.10494,2.12275 -4.90412,1.9714 -10.46439,-1.98181 -8.19013,-5.82297 -9.70453,-4.92959 -10.64081,6.27724 -0.52024,6.22703 -1.02704,7.71464 -3.51178,10.30815 -2.28478,2.38479 -3.02141,4.24429 -3.45551,8.72276 l -0.55172,5.69185 z m 15.79452,1.75396 c -4.70072,-3.56835 3.02547,-19.55685 8.91079,-18.4399 3.79941,0.72107 2.36978,11.26531 -2.27598,16.78648 -2.81641,3.34711 -4.01137,3.6449 -6.63481,1.65342 z M 121.0513,163.43751 c -1.35933,-7.07318 -1.77201,-13.32151 -0.87985,-13.32151 0.52575,0 1.26641,3.42656 1.64592,7.61458 0.693,7.64748 0.24634,10.97492 -0.76607,5.70693 z m 204.35192,-8.88499 c 0,-2.50992 0.73739,-9.29799 1.63864,-15.08461 1.43511,-9.21436 1.92617,-10.65213 3.9536,-11.57589 2.18843,-0.99712 2.23438,-1.21063 0.84056,-3.90598 -3.01414,-5.82869 -8.4328,-7.31368 -8.4328,-2.31102 0,2.72419 -1.73479,3.29568 -2.66284,0.87721 -1.01612,-2.64796 1.35624,-6.43623 4.03062,-6.43623 3.94085,0 6.69944,3.1669 9.18438,10.5438 l 2.34322,6.9562 -2.34227,2 c -1.80286,1.53941 -2.47401,3.38176 -2.9143,8 -0.63582,6.66913 -3.33226,15.5 -4.73281,15.5 -0.4983,0 -0.906,-2.05357 -0.906,-4.56348 z m -13.47131,-2.99039 c -1.08421,-0.81964 -2.49217,-1.29039 -3.12878,-1.0461 -0.70393,0.27013 -1.35507,-1.02903 -1.66175,-3.31554 -0.29757,-2.21855 -1.57701,-4.83243 -3.12122,-6.37664 -3.91474,-3.91474 -3.45906,-8.17504 1.13306,-10.59333 2.55656,-1.34633 2.96294,-0.22899 1.03785,2.85357 -1.53942,2.46501 -1.25364,2.7011 4.26348,3.52212 4.24351,0.63148 4.63268,0.49873 5.75425,-1.96285 1.37322,-3.01389 2.74318,-2.6682 3.41812,0.86253 0.65689,3.43629 -0.6956,5.28072 -4.88648,6.66383 l -3.64736,1.20374 2.35578,1.77697 c 1.91672,1.44578 2.12878,2.05048 1.13782,3.24452 -0.66988,0.80715 -0.93706,2.19959 -0.59372,3.0943 0.75955,1.97936 0.47418,1.98945 -2.06105,0.0729 z M 195.571,123.38699 c -1.28272,-0.89326 -3.89716,-4.07052 -5.80988,-7.06058 -3.22539,-5.0421 -3.69811,-5.39237 -6.51668,-4.82865 -4.24452,0.8489 -9.07562,-2.65076 -5.9606,-4.31787 3.29764,-1.76484 5.8696,-1.22209 9.55891,2.01716 3.70188,3.2503 9.81273,11.21512 10.87083,14.16895 0.74363,2.07594 0.80743,2.07531 -2.14258,0.021 z M 174.1601,117.116 c -0.40126,-1.375 -0.70719,-3.625 -0.67984,-5 l 0.0497,-2.5 0.98263,2.4615 c 0.54045,1.35382 0.84637,3.60382 0.67984,5 l -0.30279,2.5385 -0.72957,-2.5 z m 19.87077,-10.89492 c -4.02563,-8.970278 -3.73075,-10.106048 2.62235,-10.100474 2.8875,0.0025 11.1,0.864756 18.25,1.916052 7.15,1.051296 16.375,2.211992 20.5,2.579332 8.74499,0.77875 24.98539,3.37295 26.33419,4.20655 1.49138,0.92172 -7.38942,3.52186 -10.24081,2.99832 -1.42636,-0.26189 -4.01249,-1.0599 -5.74696,-1.77336 -2.5978,-1.06857 -4.14535,-1.05927 -8.78098,0.0528 -4.51245,1.08252 -6.89909,1.11567 -12.04601,0.16731 -4.47467,-0.82449 -7.75286,-0.88366 -10.8241,-0.19538 -2.86651,0.64239 -5.58913,0.64782 -7.79381,0.0155 -1.86357,-0.53444 -4.68504,-0.97173 -6.26992,-0.97173 -2.66006,0 -2.83607,0.22766 -2.28935,2.96123 1.04193,5.20965 -1.00201,4.18832 -3.7146,-1.85615 z M 43.736828,90.52226 c 0.515166,-3.898751 1.3853,-5.591461 4.237286,-8.242982 4.808602,-4.470604 4.93948,-3.83965 0.940149,4.532385 -4.375212,9.158887 -6.056577,10.363899 -5.177435,3.710597 z"
     style="fill:#1b1b1b" />
  <path
     inkscape:connector-curvature="0"
     id="path9560"
     d="m 146.47386,195.4008 c -0.0388,-0.66837 -1.38204,-2.70881 -2.98487,-4.53433 -1.60282,-1.82551 -3.2361,-5.0349 -3.62952,-7.13196 -0.56216,-2.99657 -1.32982,-4.02708 -3.58577,-4.81351 -1.57876,-0.55036 -2.87048,-1.4837 -2.87048,-2.07408 0,-0.59039 -0.71908,-1.86802 -1.59796,-2.83917 -0.87888,-0.97115 -1.30232,-2.24408 -0.94098,-2.82874 0.84088,-1.36058 7.08063,-1.37866 9.60468,-0.0278 2.51521,1.34607 2.47932,2.96479 -0.0657,2.96479 -1.24219,0 -2,0.66667 -2,1.75945 0,0.9677 0.9,2.32152 2,3.00848 1.1,0.68696 2.00024,1.8077 2.00053,2.49054 3.4e-4,0.79309 1.50011,1.23291 4.15218,1.21768 4.06657,-0.0234 4.17912,-0.11807 5.49229,-4.6216 1.44551,-4.9574 3.58099,-7.45095 5.41194,-6.31936 1.85525,1.14661 0.24809,6.30137 -3.66118,11.7428 -1.98064,2.7569 -4.42316,6.85967 -5.42782,9.11728 -1.00467,2.2576 -1.85845,3.55789 -1.8973,2.88953 z M 127.28697,173.616 c -0.0808,-0.55 -0.45987,-6.175 -0.84241,-12.5 l -0.69555,-11.5 -0.17289,10.05887 c -0.19152,11.14203 -2.20465,17.00866 -3.5481,10.33977 -0.49096,-2.43713 -0.92717,-3.00924 -1.54187,-2.02223 -0.56234,0.90294 -1.11959,-0.81702 -1.61996,-5 -0.75188,-6.28557 -0.7808,-6.33367 -2.03019,-3.37641 l -1.26745,3 -0.40796,-4.5 -0.40796,-4.5 -0.1747,5.19098 c -0.24749,7.35335 -2.17251,7.89825 -2.1834,0.61804 -0.005,-3.19496 -0.30081,-8.24197 -0.65784,-11.21558 -0.47724,-3.97488 -0.34254,-5.21708 0.5087,-4.69099 1.42748,0.88224 1.44456,1.11409 -0.35478,-4.81733 -1.62607,-5.36023 -1.14039,-7.19863 1.09437,-4.14242 1.33078,1.81996 1.41824,1.73825 1.41824,-1.32489 0,-2.57646 0.36882,-3.19026 1.75,-2.9124 1.92088,0.38644 2.89131,-0.24017 7.28728,-4.70541 3.44284,-3.49708 3.98816,-6.58092 1.02677,-5.8065 -1.5774,0.4125 -2.06265,-0.16909 -2.62004,-3.14025 -0.82187,-4.38093 -0.31282,-5.08859 2.55599,-3.55325 3.21621,1.72127 3.38737,0.6601 0.37879,-2.34848 -2.86426,-2.86426 -5.278,-3.35231 -7.17879,-1.45152 -0.93333,0.93333 -1.2,0.6 -1.2,-1.5 0,-1.485 -0.3872,-2.7 -0.86045,-2.7 -0.47325,0 -2.41589,-1.05554 -4.31697,-2.34565 -1.90108,-1.29011 -4.58427,-2.62871 -5.96263,-2.974653 -2.33586,-0.586263 -2.48015,-0.409917 -2.12387,2.595653 l 0.38226,3.22465 -2.05917,-2.36078 c -4.274124,-4.900169 -1.30495,-11.294088 3.1677,-6.821438 1.88988,1.889874 3.90716,2.55597 9.34175,3.084597 20.06377,1.951621 30.25836,4.596331 34.14439,8.857841 3.52445,3.865 13.28699,20.93681 13.28699,23.23505 0,2.34792 -2.83051,5.50473 -4.93573,5.50473 -0.70304,0 -1.06686,0.5625 -0.80849,1.25 2.16717,5.76668 1.28752,8.26325 -1.96824,5.58609 -1.45512,-1.19652 -1.55943,-1.0057 -0.99864,1.82669 0.4302,2.17281 0.16999,3.54142 -0.83134,4.37245 -0.80166,0.66531 -1.45756,1.82956 -1.45756,2.58721 0,3.07119 -1.8699,1.1071 -2.50072,-2.62669 -1.08358,-6.41369 -2.49928,-3.56558 -2.49928,5.02808 0,8.09266 -1.60435,11.0173 -5.30544,9.67151 -0.65701,-0.2389 -1.99269,0.26128 -2.96819,1.11152 -1.26631,1.10371 -2.0815,1.23801 -2.85,0.46951 -1.20502,-1.20502 -4.86466,1.76778 -4.89168,3.97363 -0.02,1.63047 -1.9095,4.55343 -2.10094,3.25 z m -5.4696,-15.88542 c -0.37951,-4.18802 -1.12017,-7.61458 -1.64592,-7.61458 -0.89216,0 -0.47948,6.24833 0.87985,13.32151 1.01241,5.26799 1.45907,1.94055 0.76607,-5.70693 z m 192.28967,-5.37199 c -0.28958,-1.50842 -0.0261,-3.34753 0.58555,-4.08689 0.85351,-1.03177 0.56436,-1.75743 -1.24373,-3.12127 l -2.35578,-1.77697 3.64736,-1.20374 c 2.00604,-0.66205 4.08714,-1.95748 4.62466,-2.87873 0.72927,-1.24988 0.98502,-0.37746 1.00771,3.43751 0.0247,4.15657 -0.50899,5.79124 -2.85443,8.74259 l -2.88484,3.6301 z M 246.23607,144.866 c -2.42556,-2.8875 -5.85224,-7.11099 -7.61484,-9.38553 -3.36315,-4.33994 -8.87457,-6.42303 -9.90302,-3.74294 -0.27486,0.71629 -1.47068,1.59769 -2.65737,1.95868 -1.18669,0.36099 -2.92744,1.33187 -3.86833,2.15751 -1.85114,1.62437 -10.78929,0.99129 -10.78929,-0.7642 0,-0.49716 -1.28109,-2.38209 -2.84686,-4.18872 -1.56578,-1.80664 -3.14955,-4.84743 -3.51951,-6.75731 -0.36995,-1.90989 -2.07186,-4.91615 -3.78203,-6.6806 -2.34736,-2.42186 -3.20267,-4.3279 -3.49004,-7.77748 -0.42651,-5.11983 1.05552,-5.74416 8.53996,-3.59765 2.20468,0.63229 4.9273,0.62686 7.79381,-0.0155 3.07124,-0.68828 6.34943,-0.62911 10.8241,0.19538 5.14692,0.94836 7.53356,0.91521 12.04601,-0.16731 4.73826,-1.13669 6.12566,-1.13446 8.78098,0.0141 3.76842,1.63004 9.97368,1.75353 14.26966,0.28396 1.71384,-0.58627 3.68588,-0.71378 4.38232,-0.28336 2.44764,1.51273 -8.36917,3.32702 -18.4984,3.10272 -12.00481,-0.26583 -16.27965,1.4095 -10.81162,4.23712 3.92924,2.03189 4.77128,4.22578 2.28918,5.96432 -1.81191,1.2691 -1.61072,1.50611 3.07692,3.62466 4.8193,2.17804 12.84157,10.58513 18.28202,19.15895 3.09222,4.87314 1.26958,5.51896 -2.3915,0.84738 -4.46142,-5.69284 -14.79846,-15.93418 -16.08304,-15.93418 -1.73953,0 0.23268,4.19516 5.78048,12.29585 4.58123,6.68935 6.44872,10.70415 4.97903,10.70415 -0.20819,0 -2.36307,-2.3625 -4.78862,-5.25 z m -58.27679,-6 c -2.36876,-2.3375 -4.83215,-5.89005 -5.4742,-7.89455 -0.68596,-2.1416 -1.96953,-3.85432 -3.11257,-4.15323 -2.43295,-0.63623 -3.50469,-3.48515 -4.30825,-11.45222 -0.6593,-6.5368 0.49973,-8.17107 3.355,-4.73067 0.89007,1.07247 2.23419,1.33675 4.56998,0.89856 3.14892,-0.59075 3.48153,-0.35112 6.87401,4.95217 1.96073,3.06512 4.41913,6.03008 5.46309,6.5888 6.38646,3.41793 7.4069,12.90277 1.88781,17.54678 -3.89468,3.27715 -4.21665,3.21607 -9.25487,-1.75564 z m 120.19394,-2.46625 c -2.87135,-0.43498 -3.54299,-2.09076 -1.62576,-4.00799 0.81559,-0.81559 0.82987,-1.96864 0.052,-4.2 -1.20295,-3.45076 -1.15338,-3.47478 4.13867,-2.00525 6.20644,1.72344 8.02984,4.1607 5.90552,7.89362 -1.72196,3.02588 -2.46501,3.22936 -8.47045,2.31962 z m 17.85699,-3.86554 c -0.33385,-0.86998 -0.60699,-2.64342 -0.60699,-3.94098 0,-1.29756 -0.45,-2.63731 -1,-2.97723 -1.32152,-0.81675 -1.28781,-6.20409 0.044,-7.02718 1.52211,-0.94071 5.68309,2.09871 7.38882,5.39722 1.40319,2.71348 1.35589,2.90521 -0.97919,3.96914 -1.6605,0.75658 -2.45361,1.93298 -2.45361,3.63938 0,2.81057 -1.45572,3.38218 -2.39301,0.93965 z M 32.998865,129.50466 c -0.452567,-1.17937 -0.191242,-1.44745 0.974799,-1 0.87622,0.33624 1.807881,0.61134 2.070357,0.61134 0.262477,0 0.199115,0.45 -0.140804,1 -0.917278,1.48419 -2.204168,1.21331 -2.904352,-0.61134 z m 45.400719,-20.06534 c -0.0078,-3.89391 7.159927,-17.849287 9.810005,-19.099923 3.957175,-1.867488 4.922975,-1.509208 5.463025,2.026603 0.634931,4.157018 -0.715338,5.787998 -4.543863,5.488495 -2.672982,-0.209105 -3.155517,0.162006 -3.915695,3.011505 -0.476863,1.7875 -1.275645,3.25 -1.775072,3.25 -0.499428,0 -1.049061,1.45881 -1.221409,3.24181 -0.34479,3.56699 -3.810266,5.45681 -3.816991,2.08151 z M 105.40322,93.466885 c -3.74208,-1.29197 -5.990435,-2.611061 -11.841309,-6.947218 -1.67343,-1.240199 1.421517,-4.403667 4.308283,-4.403667 2.328896,0 4.921466,-1.194148 8.610496,-3.966029 5.27001,-3.959813 13.29625,-6.545926 18.16855,-5.854043 5.40192,0.76709 0.9092,15.780634 -6.1439,20.53137 -3.94105,2.654558 -6.85405,2.796758 -13.10212,0.639587 z M 79.571755,89.866 c -2.660449,-10.360155 -2.403582,-13.14799 0.8502,-9.227422 0.694995,0.837418 2.03943,1.276348 2.987632,0.9754 1.369566,-0.434683 1.665617,-0.01529 1.440008,2.039963 -0.171007,1.557835 0.298414,2.810632 1.179881,3.148883 1.177474,0.451839 1.063766,0.841989 -0.581191,1.994163 -1.124788,0.787831 -2.045068,2.306904 -2.045068,3.375717 0,3.63562 -2.727114,1.993781 -3.831462,-2.306704 z"
     style="fill:#010101" />
</svg>
