<svg version="1.2" xmlns="http://www.w3.org/2000/svg" viewBox="0 0 450 450" width="450" height="450">
	<title>13905</title>
	<style>
		.s0 { fill: #d8b28d } 
		.s1 { fill: #c49772 } 
		.s2 { fill: #936555 } 
		.s3 { fill: #aa805e } 
		.s4 { fill: #8e684c } 
		.s5 { fill: #775742 } 
	</style>
	<g id="Layer 1">
		<g id="&lt;Group&gt;">
			<path id="&lt;Path&gt;" fill-rule="evenodd" class="s0" d="m314.6 93.1l7.6-1.3 6.7-5.7 5-4.1 20.3 6.2 12.5 12.3 6 10.5-5.6 6.3 20.7 22.3 5.6 4.7 0.5 4.7-1.3 6.1-0.2 5.8-4.8 2.6-4.9 6.3-8.9-2.5-9.4-6.8-7.3 0.8-9.3 0.4-3.2 16-7.4 5.9-0.4 11.5-6.3 3.7-4 11-10.8-0.1-3.3 20-9.1 3.3-3.2 10.3c0 0-5.7 17.4-5.8 18.5 0 1-16.7 23.4-16.7 23.4l-13.3 8.9-1.4 7.1-2.9 2.8-1.5 19.3 2.3 14.2 5.1 8.1 9.1 7.5 0.1 7.2-10.5 0.7-8.9-0.7-3.3-9.1 0.2-4.3-10.3-4 1.6-5.4-0.8-6.5-2.8-31-16.6-7.1-0.4-9-2.3-5.5-22.3 0.9-38.3 4.7-21.4-6.2-13.9 5.6-17.3 10.4-6.2 12-5.7 8.8 0.6 12.6 3.8 13.8 6 2.8 4.1 5.2 4.6 1.2 7.8 14-1.9 1-4.6-0.2 0.9 2.9-7.2 0.8-17.5-2.4-2.6-7.7 0.5-3.2-7.8-2.5 0.7-10-3.1-12.7-6.7-22.9 2-6.1-8.1-21.5-5-38.3-5.1-35.8 1.6-25.1-1.9-14.9 3.4-13.5 13.3-8.8 8.3-9.8 35.8-5.8 29.6-3.2 42.5-0.5 32.4-1.7 33 2.7 14.3-7.3 7.6-9.1 21.5-7.4-6.6-8.2-0.7-9.4 5.7 0.9z"/>
			<path id="&lt;Path&gt;" fill-rule="evenodd" class="s1" d="m73.9 308.7l6 1.7 7.7 23.7 1.3 12.6-1.2 7.9-5.1-1.7 0.7-10-3.1-12.7z"/>
			<path id="&lt;Path&gt;" fill-rule="evenodd" class="s1" d="m240.3 300l-5.3-2.3 4.5-4.9 4.9 4.8 4.6 21.1-2 13.2 0.8 8.3 2 3.3 0.1 2.3-7.6-2.9 1.6-5.4-0.8-6.5z"/>
			<path id="&lt;Path&gt;" fill-rule="evenodd" class="s1" d="m93.9 358.8l9.2-6.9 6.7-3.7 0.6 0.8 4.6 1.2 7.8 14-1.9 1-4.6-0.2 0.9 2.9-7.2 0.8-17.5-2.4-1.9-5.6z"/>
			<path id="&lt;Path&gt;" fill-rule="evenodd" class="s1" d="m260.7 350.4l7.7-2.7 6.6 5.4 0.1 7.2-10.5 0.7-8.9-0.7-2.9-8.1z"/>
			<path id="&lt;Path&gt;" fill-rule="evenodd" class="s2" d="m91.8 364.1l10.4-0.2 11 0.2-5.2-11.5 0.6-0.8 7.5 9.4 5-0.1 1.7 3.1-1.9 1-4.6-0.2 0.9 2.9-7.2 0.8-17.5-2.4z"/>
			<path id="&lt;Path&gt;" fill-rule="evenodd" class="s2" d="m255.7 360.3l-0.6-1.7h4.6l8.4-0.5-5.5-8.4 3-1 4.8 4.9 1.5 3.9 3.1 0.2 0.1 2.6-10.5 0.7z"/>
			<path id="&lt;Path&gt;" fill-rule="evenodd" class="s3" d="m57 165.6l3.4-13.5 13.3-8.8 8.3-9.8 35.8-5.8 29.6-3.2 42.5-0.5 32.4-1.7 33 2.7 14.3-7.3 7.6-9.1 21.5-7.4-6.6-8.2-0.7-9.4 5.7 0.9 17.5 8.6 7.6-1.3 6.7-5.7 5-4.1 20.3 6.2 12.5 12.3 2.1 3.7 3.9 6.8-3.8 4.2-3.3-5.8-1.4-1.4-9.4-8.5-16.4-7.1-7.7 3.5-6.2 5.7-2.4 8.5 3.8 12.1c0 0 4.3 14.2 4.2 16.3 0 2.2 0.2 10.3 0.2 10.3l13.8 4.8 5.6 8-1.9 0.1-3.2 16-7.4 5.9-0.4 11.5-6.3 3.7-4 11-10.8-0.1-3.3 20-9.1 3.3-3.2 10.3c0 0-5.7 17.4-5.8 18.5 0 1-16.7 23.4-16.7 23.4l-13.3 8.9-1.4 7.1-2.7 2.6h-10.3l-9.3-1.3-0.3-2.5-16.6-7.1-0.4-9-2.3-5.5-22.3 0.9-38.3 4.7-21.4-6.2-13.9 5.6-17.3 10.4-6.2 12-5.4 8.4-14.5-0.1-6.9-2.5-1.3-4.3 2-6.1-8.1-21.5-5-38.3-5.1-35.8 1.6-25.1z"/>
			<path id="&lt;Path&gt;" fill-rule="evenodd" class="s4" d="m57.7 198.4l3.6 14.2 6.1 20 7.3 14.6 10.7 12h19.1l12.4-4.9 5.1-10.3-2-14.4 4.9-5.3 12.8 4.5 8.2 11.8 10.9 14.5 27.4 8.6 28.3 2.5c0 0 5.2-5.2 5.3-6.3 0-1.1 2.9-11.4 2.9-11.4l6.2-10.2 1.7-6.4 2.3 4.4-2.2 9.6c0 0-5.5 12.1-5.1 13.2 0.3 1.1 3.5 10.9 3.5 10.9l3.4 6.2 22.4 5.2 8.4-2.2 6.5-9.5 3.3-13.5 5.9-20.3 5.5-13.1 1.9-13.2-5.4-9.2 8.3 0.3 3.8 3 12.3-11.4 7.1-15.2-1.6-6.1 3.4-4.2h8.7l1.3-6.5-0.3-10.4-1-12.6-4.2-21.1 0.9-13.2 10.7-8.3 7.4-5.1 7.8 2.8 9.9 4.4 4.1 5.2-2.8-2.5-16.4-7.1-7.7 3.5-6.2 5.7-2.4 8.5 3.8 12.1c0 0 4.3 14.2 4.2 16.3 0 2.2 0.2 10.3 0.2 10.3l13.8 4.8 5.6 8-1.9 0.1-3.2 16-7.4 5.9-0.4 11.5-6.3 3.7-4 11-10.8-0.1-3.3 20-9.1 3.3-3.2 10.3c0 0-5.7 17.4-5.8 18.5 0 1-16.7 23.4-16.7 23.4l-13.3 8.9-1.4 7.1-2.7 2.6h-10.3l-9.3-1.3-0.3-2.5-16.6-7.1-0.4-9-2.3-5.5-22.3 0.9-38.3 4.7-21.4-6.2-13.9 5.6-17.3 10.4-6.2 12-5.4 8.4-14.5-0.1-6.9-2.5-1.3-4.3 2-6.1-8.1-21.5-5-38.3-5.1-35.8z"/>
			<path id="&lt;Path&gt;" fill-rule="evenodd" class="s2" d="m390.4 150.2l-1.9-6-4.7-3.7-0.1 1.9-1.4 2.1 4.2 2.8z"/>
			<path id="&lt;Path&gt;" fill-rule="evenodd" class="s1" d="m367.7 131.3l-7.5-8.9-1.4-6.3-2.3-4.4-8.5-2.2-3.4 4.2v6.2l8.5 5.2 10.3 5.8 7.3 5.1 0.3-1.9z"/>
			<path id="&lt;Path&gt;" fill-rule="evenodd" class="s2" d="m356.1 116l-5.1 0.1-2.8 1.8 1.3 1.4 6.9 1.9-1.2-2.8z"/>
			<path id="&lt;Path&gt;" fill-rule="evenodd" class="s1" d="m344.1 153.6l-13.8-4.8c0 0-0.2-8.1-0.2-10.3 0.1-1.1-1-5.5-2.2-9.4l0.7 0.2 5 10.1 3.8 7.5 9.8 4.7 9.5 4.1 9.3 3.6c0 0 6.3 4.3 7.1 4.6 0.8 0.3 8.6 1.7 8.6 1.7l2.5-1.6-5.6-2.1-7.7-2.1-1.8-3.6 2.5-0.5 3.4 2.9 9 3.5 5 0.7-1.4 0.7-4.9 6.3-8.9-2.5-9.4-6.8-7.3 0.8-7.4 0.3z"/>
			<path id="&lt;Path&gt;" fill-rule="evenodd" class="s5" d="m101.6 305.8l-5.4 8.4-14.5-0.1-6.9-2.5-1.3-4.3 2-6.1v-0.1l0.8-0.2 14.2 2.4 8.6-7.5c0 0 9.4-11.5 10.2-12.3 0.9-0.7 4.9-15.4 4.9-15.4l12-8.7 16 11.9 26.7 6.2 28.4-2.2 20.2-5.7 2.9 1.7 2.2 5.8c0 0 7.9 4.6 8.7 5.7 0.7 1.1 14.8 8.1 14.8 8.1l18.8-4.6 15.4-15.4 10.5-14.9 7.2-16.8 3.9-1.7-1.8 5.8c0 0-5.7 17.4-5.8 18.5 0 1-16.7 23.4-16.7 23.4l-13.3 8.9-1.4 7.1-2.7 2.6h-10.3l-9.3-1.3-0.3-2.5-16.6-7.1-0.4-9-2.3-5.5-22.3 0.9-38.3 4.7-21.4-6.2-13.9 5.6-17.3 10.4z"/>
			<path id="&lt;Path&gt;" fill-rule="evenodd" class="s0" d="m304.2 104.3l-5.9-3 0.4-0.1-6.6-8.2-0.7-9.4 5.7 0.9 17.5 8.6 0.8 1.4 4.2 3.7 2.6 2.2-1.9 7.2-6.5-1z"/>
			<path id="&lt;Path&gt;" fill-rule="evenodd" class="s1" d="m319.9 103.6l-6.3-4.6-9.5-6.3-9.6-2.2 1.8 3.3 4.3 5.8 9 3.9 10 1.1z"/>
			<path id="&lt;Path&gt;" fill-rule="evenodd" class="s4" d="m315 152.5l2.4 3.7-1.8 0.6-4.1-4.8z"/>
			<path id="&lt;Path&gt;" fill-rule="evenodd" class="s4" d="m316.6 159l0.6 3.3-2-0.1-0.1-3z"/>
			<path id="&lt;Path&gt;" fill-rule="evenodd" class="s4" d="m297 155l2.8 4.5 5.4 1.4-0.1 1.6-6.1-0.9-3.7-4.3 0.1-3z"/>
			<path id="&lt;Path&gt;" fill-rule="evenodd" class="s4" d="m300.8 152.7l0.3 3.6c0 0-1.6-0.8-1.6-1.3 0-0.6-0.6-3.7-0.6-3.7z"/>
			<path id="&lt;Path&gt;" fill-rule="evenodd" class="s4" d="m298.1 178.1l0.6 6-1.6 3.9c0 0-3.6 0.9-3.6 0.4 0-0.6 0.3-8.3 0.4-9 0-0.7-1.4-5.5-1.4-5.5z"/>
			<path id="&lt;Path&gt;" fill-rule="evenodd" class="s4" d="m300.7 175.1l3.5 3.1-1 2.8-2.6-3.2-1.7-2.7z"/>
			<path id="&lt;Path&gt;" fill-rule="evenodd" class="s4" d="m266.9 253.9l0.1 6.5-2.9 0.2-2.2-7.6-1.6-5.8 3.2 1.5z"/>
			<path id="&lt;Path&gt;" fill-rule="evenodd" class="s4" d="m258.3 253.9l3.1 3-3.7 3.1-6.2-6.3-0.6-4.7z"/>
			<path id="&lt;Path&gt;" fill-rule="evenodd" class="s4" d="m301.2 166.7l9.6 2.2-1.9 3.5-6.4-3.1-3.4-3.4z"/>
			<path id="&lt;Path&gt;" fill-rule="evenodd" class="s4" d="m279.2 168l8.2 1.8-5.3 6.3-3-4.5-3.4-5.1z"/>
			<path id="&lt;Path&gt;" fill-rule="evenodd" class="s4" d="m285.3 160l0.2 4-3.6-0.5-0.1-5.8z"/>
			<path id="&lt;Path&gt;" fill-rule="evenodd" class="s4" d="m294.8 193.1l5.2 4.5-6.5 0.1-2-2.9z"/>
			<path id="&lt;Path&gt;" fill-rule="evenodd" class="s4" d="m283.8 189.8l1.6 4-3.9-1.2-1.6-6.2-2.3-4.4 6.4 1z"/>
			<path id="&lt;Path&gt;" fill-rule="evenodd" class="s4" d="m252.2 214.8l2.3 6.6c0 0-8.2-1.4-8.2-2.5 0.1-1.1-4.7-7-4.7-7l4-2z"/>
			<path id="&lt;Path&gt;" fill-rule="evenodd" class="s4" d="m213.9 256.5l-8.7 2.6-9.2-2.9-2.7-5.9 9.9 4z"/>
			<path id="&lt;Path&gt;" fill-rule="evenodd" class="s4" d="m209.8 252.4l-3.2-10.5-2.2 0.2 0.9 6.5z"/>
			<path id="&lt;Path&gt;" fill-rule="evenodd" class="s4" d="m214.7 246.5l3.5 1.9-3.3 1-3.1-1.9-1.4-2.3z"/>
			<path id="&lt;Path&gt;" fill-rule="evenodd" class="s4" d="m188.2 243.7l4.2 3.7c0 0-4.8 0.9-5.1-0.2-0.3-1-4.1-5.9-4.1-5.9l0.1-2.5z"/>
			<path id="&lt;Path&gt;" fill-rule="evenodd" class="s4" d="m165.3 248.6l13.6 3.7 0.6 2.6c0 0-6.8-1.4-7.9-1.8-1-0.4-5.3-2-5.3-2l-3.1-3.3z"/>
			<path id="&lt;Path&gt;" fill-rule="evenodd" class="s4" d="m197.6 157.4l11.1 2.5-4.2 4.6-8.5-3.6-3.7-5.2z"/>
			<path id="&lt;Path&gt;" fill-rule="evenodd" class="s4" d="m242.1 216.6l3.4 4.1-6.8-1.3-4.4-5.3z"/>
			<path id="&lt;Path&gt;" fill-rule="evenodd" class="s4" d="m238.2 206.4l-0.2 3.6-4.5-3.8-2-5.1z"/>
			<path id="&lt;Path&gt;" fill-rule="evenodd" class="s4" d="m253.9 200.5l2.7 3.4-8.2-1.4-1.3-4z"/>
			<path id="&lt;Path&gt;" fill-rule="evenodd" class="s4" d="m254.7 187.6l5 2-9.1 1.1-1.9-4.8z"/>
			<path id="&lt;Path&gt;" fill-rule="evenodd" class="s4" d="m225.6 149.4l1.2 6.2-2.4-2.6-3.1-5.2z"/>
			<path id="&lt;Path&gt;" fill-rule="evenodd" class="s4" d="m195.1 148.3l8.5 2.8-3.6 0.6-6.1-1.3-1-2.6z"/>
			<path id="&lt;Path&gt;" fill-rule="evenodd" class="s4" d="m249.4 242.1l-6.8-1.7-2.7-4.1 5.9-3.4-0.2 4.3 6.8 2.1z"/>
			<path id="&lt;Path&gt;" fill-rule="evenodd" class="s4" d="m243.8 246.9l3.6 0.5-2.3 2.4-3.2-0.8z"/>
			<path id="&lt;Path&gt;" fill-rule="evenodd" class="s4" d="m173 236.6l0.2 2.5-3.1-1.2-2.1-3.3z"/>
		</g>
	</g>
</svg>